<?xml version="1.0" encoding="utf-8"?>
<!-- Generator: Adobe Illustrator 27.9.0, SVG Export Plug-In . SVG Version: 6.00 Build 0)  -->
<svg version="1.1" id="orsEdificio" xmlns="http://www.w3.org/2000/svg" xmlns:xlink="http://www.w3.org/1999/xlink" x="0px"
	 y="0px" viewBox="0 0 3600 5600" style="enable-background:new 0 0 3600 5600;" xml:space="preserve">
<style type="text/css">
	.fondoEdi{fill-rule:evenodd;clip-rule:evenodd;fill:#808080;}
	/* #estacionamiento{transform: translateX(500px);}
	#total{transform: translateX(500px);}
	#amenties{transform: translateX(500px);} */
	.fondoIzquierda{fill-rule:evenodd;clip-rule:evenodd;fill:#00FFFF;}
	.fondoEstacionamientoIzquierda{fill-rule:evenodd;clip-rule:evenodd;fill:#B2B2B2;}
	.allTxtIzquierda{
		font-family: 'Segoe UI', Tahoma, Geneva, Verdana, sans-serif;
		font-weight: bold;
		font-size:60px;
	}
	#simpleA{fill-rule:evenodd;clip-rule:evenodd;fill:#B2B2B2;}
	#monoA{fill-rule:evenodd;clip-rule:evenodd;fill:#B2B2B2;}
	#monoB{fill-rule:evenodd;clip-rule:evenodd;fill:#B2B2B2;}
	#simpleB{fill-rule:evenodd;clip-rule:evenodd;fill:#B2B2B2;}
	#simpleC{fill-rule:evenodd;clip-rule:evenodd;fill:#B2B2B2;}
	#monoC{fill-rule:evenodd;clip-rule:evenodd;fill:#B2B2B2;}
	#monoD{fill-rule:evenodd;clip-rule:evenodd;fill:#B2B2B2;}
	#simpleD{fill-rule:evenodd;clip-rule:evenodd;fill:#B2B2B2;}

	

	#bloqueFrente{fill-rule:evenodd;clip-rule:evenodd;fill:#B2B2B2;}
	#bloqueAtras{fill-rule:evenodd;clip-rule:evenodd;fill:#B2B2B2;}
	#ascensor{fill-rule:evenodd;clip-rule:evenodd;fill:rgba(0, 0, 0, 0.5);}
	#vacio1{fill-rule:evenodd;clip-rule:evenodd;fill:rgba(0, 0, 0, 1);}
	#bloqueFrenteLineas{stroke-linecap: round;stroke-linejoin: round;fill:none;stroke:#000000;stroke-width:3;}
	#ascensorLineas{stroke-linecap: round;stroke-linejoin: round;fill:none;stroke:#000000;stroke-width:3;}
	#bloqueAtrasLineas{stroke-linecap: round;stroke-linejoin: round;fill:none;stroke:#000000;stroke-width:3;}
	.regla{fill:#FFC2C2;}
	#bloque{
		transform: translateX(1200px);
	}
</style>
<rect id="fondo" class="fondoEdi" width="3600" height="5600"/>
<g id="estacionamiento">
	<path id="estaFnd" class="fondoIzquierda" d="M330,4882.99h38.49c18.88,0,34.32-15.43,34.32-34.32v-608.1c0-18.89-15.45-34.32-34.32-34.32H330
		c-18.88,0-34.32,15.43-34.32,34.32v608.1C295.67,4867.56,311.12,4882.99,330,4882.99"/>
	<text id="estaTxt" transform="matrix(6.123234e-17 -1 1 6.123234e-17 363.6798 4835.1953)" class="allTxtIzquierda ">ESTACIONAMIENTO</text>
</g>
<g id="total">
	<path id="totalFnd" class="fondoEstacionamientoIzquierda" d="M330,4206.25h38.49c18.88,0,34.32-15.48,34.32-34.36V1046.75c0-18.88-15.45-34.36-34.32-34.36
		H330c-18.88,0-34.32,15.48-34.32,34.36v3125.14C295.67,4190.77,311.12,4206.25,330,4206.25"/>
	<text id="totalTXT" transform="matrix(6.123234e-17 -1 1 6.123234e-17 363.6798 3156.3672)" class="allTxtIzquierda">TOTAL 88 DEPARTAMENTOS</text>
</g>
<g id="amenties">
	<path id="ameFnd" class="fondoIzquierda" d="M330,1012.39h38.49c18.88,0,34.32-15.43,34.32-34.32v-608.1c0-18.89-15.45-34.32-34.32-34.32H330
		c-18.88,0-34.32,15.43-34.32,34.32v608.1C295.67,996.96,311.12,1012.39,330,1012.39"/>
	
		<text id="ameTXT_00000125603348235002281700000012153491815289434002_" transform="matrix(6.123234e-17 -1 1 6.123234e-17 363.6798 829.0312)" class="allTxtIzquierda ">AMENTIES</text>
</g>
<g id="bloque">
	<g id="bloqueAtrasTecho">
		<polygon id="monoD" points="615.59,4444.08 629.29,4419.97 663.52,4440.06 706.15,4365 671.92,4344.91 
			724.91,4251.62 915.07,4363.23 805.76,4555.69 		"/>
		<polygon id="simpleD" points="743.18,4262.35 774.8,4206.67 756.53,4195.95 779.49,4155.52 1012.16,4292.07 
			941.31,4416.83 898.8,4391.88 915.07,4363.23 		"/>
		<polygon id="monoC" points="615.59,4444.08 601.9,4468.19 636.13,4488.28 593.49,4563.35 559.26,4543.26 
			506.28,4636.55 696.45,4748.15 805.76,4555.69 		"/>
		<polygon id="simpleC" points="524.55,4647.27 492.93,4702.95 474.66,4692.22 451.7,4732.65 684.37,4869.21 
			755.23,4744.45 712.72,4719.5 696.45,4748.15 		"/>
	</g>
	<g id="bloqueAtras">
		<path d="M451.7,4961l232.68,136.56v-228.35c-77.56-45.52-155.12-91.04-232.68-136.56
			C451.7,4808.77,451.7,4884.89,451.7,4961"/>
		<polygon points="684.37,5097.56 755.23,4972.8 755.23,4744.45 684.37,4869.21 		"/>
		<polygon points="524.55,4647.27 506.28,4636.55 506.28,4679.45 		"/>
		<path d="M601.9,4548.56l34.23-60.27c-11.41-6.7-22.82-13.39-34.23-20.09V4548.56z"/>
		<polygon points="671.92,4344.91 671.92,4425.27 706.15,4365 		"/>
		<polygon points="756.53,4195.95 756.53,4238.84 774.8,4206.67 		"/>
		<polygon points="1012.16,4292.07 904.47,4481.68 1001.74,4538.77 1012.16,4520.43 		"/>
	</g>
	<g id="bloqueFrenteTecho">
		<polygon id="simpleB" points="1378.81,4635.39 1410.44,4579.72 1428.71,4590.44 1451.67,4550.01 1219,4413.46 
			1148.14,4538.21 1190.65,4563.16 1206.92,4534.51 		"/>
		<polygon id="monoB" points="1287.78,4838.58 1301.47,4814.47 1267.24,4794.38 1309.87,4719.31 1344.11,4739.4 
			1397.09,4646.12 1206.92,4534.51 1097.61,4726.97 		"/>
		<polygon id="monoA" points="1287.78,4838.58 1274.08,4862.69 1239.85,4842.6 1197.21,4917.67 1231.45,4937.76 
			1178.46,5031.04 988.3,4919.44 1097.61,4726.97 		"/>
		<polygon id="simpleA" points="1160.19,5020.32 1128.57,5076 1146.84,5086.72 1123.88,5127.15 891.2,4990.59 
			962.06,4865.84 1004.57,4890.79 988.3,4919.44 		"/>
	</g>
	<g id="bloqueFrente">
		<path d="M891.2,5218.95l232.68,136.56v-228.35c-77.56-45.52-155.12-91.04-232.68-136.56V5218.95z"/>
		<path d="M1146.84,5086.72l-22.96,40.43v228.35l22.96-40.43C1146.84,5238.96,1146.84,5162.84,1146.84,5086.72"/>
		<polygon points="1146.84,5086.72 1146.84,5272.18 1160.19,5248.67 1160.19,5020.32 1128.57,5076 		"/>
		<polygon points="1178.46,5259.4 1178.46,5031.04 1160.19,5020.32 1160.19,5248.67 		"/>
		<path d="M1178.46,5031.04v228.35l52.98-93.28c0-76.12,0-152.24,0-228.35
			C1213.78,4968.85,1196.12,4999.95,1178.46,5031.04"/>
		<polygon points="1197.21,4917.67 1231.45,4937.76 1231.45,5085.75 1239.85,5070.96 1239.85,4842.6 		"/>
		<path d="M1239.85,4842.6v228.35l34.23,20.09c0-76.12,0-152.24,0-228.35L1239.85,4842.6z"/>
		<path d="M1274.08,5091.05l13.69-24.11c0-76.12,0-152.24,0-228.35l-13.69,24.11
			C1274.08,4938.81,1274.08,5014.93,1274.08,5091.05"/>
		<path d="M1397.09,4646.12l-52.98,93.28c0,76.12,0,152.24,0,228.35l52.98-93.28
			C1397.09,4798.35,1397.09,4722.24,1397.09,4646.12"/>
		<path d="M1309.87,4947.67l34.23,20.09c0-76.12,0-152.24,0-228.35l-34.23-20.09V4947.67z"/>
		<path d="M1267.24,4794.38l34.23,20.09c0,49.33,0,98.66,0,147.99l8.4-14.8v-228.35L1267.24,4794.38z"/>
		<path d="M1287.78,4838.58v228.35l13.69-24.11c0-76.12,0-152.23,0-228.35L1287.78,4838.58z"/>
		<path d="M1397.09,4831.57l13.35-23.5v-228.35l-31.62,55.68l18.27,10.72
			C1397.09,4707.94,1397.09,4769.76,1397.09,4831.57"/>
		<polygon points="1410.44,4808.07 1428.71,4818.79 1428.71,4590.44 1410.44,4579.72 		"/>
		<polygon points="1428.71,4818.79 1451.67,4778.37 1451.67,4550.01 1428.71,4590.44 		"/>
	</g>
	<g id="ascensor">
		<polygon points="941.44,4416.6 904.47,4481.68 1111.3,4603.07 1148.14,4538.21 1190.65,4563.16 1004.57,4890.79 
			962.06,4865.84 998.77,4801.21 791.94,4679.82 755.23,4744.45 712.72,4719.5 898.8,4391.88 		"/>
		<path d="M791.94,4908.17c0-76.12,0-152.24,0-228.35l-36.71,64.63v228.35L791.94,4908.17z"/>
		<path d="M791.94,4908.17l109.56,64.3l97.27-171.27l-206.83-121.39C791.94,4755.94,791.94,4832.05,791.94,4908.17"/>
	</g>
	
	<g id="bloqueFrenteLineas">
		<polygon  points="1160.2,5020.32 1128.58,5076 1146.85,5086.72 1123.89,5127.15 891.21,4990.59 962.07,4865.84 
			1004.58,4890.78 988.31,4919.44 		"/>
		<path  d="M891.2,5218.95l232.67,136.55v-228.35c-77.56-45.52-155.12-91.04-232.67-136.55V5218.95z"/>
		<path  d="M1146.84,5086.72l-22.96,40.43v228.35l22.96-40.43C1146.84,5238.96,1146.84,5162.84,1146.84,5086.72z"/>
		<polygon  points="1146.84,5086.72 1146.84,5272.18 1160.19,5248.67 1160.19,5020.32 1128.56,5076 		"/>
		<polygon  points="1287.79,4838.58 1274.1,4862.69 1239.87,4842.6 1197.23,4917.67 1231.46,4937.76 1178.48,5031.04 
			988.31,4919.44 1097.63,4726.97 		"/>
		<polygon  points="1178.46,5259.4 1178.46,5031.05 1160.19,5020.32 1160.19,5248.67 		"/>
		<path  d="M1178.46,5031.05v228.35l52.98-93.28c0-76.12,0-152.24,0-228.35
			C1213.78,4968.85,1196.12,4999.95,1178.46,5031.05z"/>
		<polygon  points="1197.21,4917.67 1231.44,4937.76 1231.44,5085.75 1239.85,5070.96 1239.85,4842.6 		"/>
		<path  d="M1239.85,4842.6v228.35l34.23,20.09c0-76.12,0-152.24,0-228.35L1239.85,4842.6z"/>
		<path  d="M1274.08,5091.05l13.69-24.11c0-76.12,0-152.24,0-228.35l-13.69,24.11
			C1274.08,4938.81,1274.08,5014.93,1274.08,5091.05z"/>
		<polygon  points="1287.79,4838.58 1301.49,4814.47 1267.26,4794.38 1309.89,4719.31 1344.13,4739.4 1397.11,4646.12 
			1206.94,4534.51 1097.63,4726.97 		"/>
		<path  d="M1397.09,4646.12l-52.98,93.28c0,76.12,0,152.24,0,228.35l52.98-93.28
			C1397.09,4798.36,1397.09,4722.24,1397.09,4646.12z"/>
		<path  d="M1309.87,4947.67l34.23,20.09c0-76.12,0-152.23,0-228.35l-34.23-20.09V4947.67z"/>
		<path  d="M1267.24,4794.38l34.23,20.09c0,49.33,0,98.66,0,147.99l8.4-14.8v-228.35L1267.24,4794.38z"/>
		<path  d="M1287.77,4838.58v228.35l13.69-24.11c0-76.12,0-152.23,0-228.35L1287.77,4838.58z"/>
		<polygon  points="1378.84,4635.39 1410.46,4579.71 1428.73,4590.44 1451.7,4550.01 1219.02,4413.45 1148.16,4538.21 
			1190.67,4563.16 1206.94,4534.51 		"/>
		<path  d="M1397.09,4831.58l13.35-23.5v-228.35l-31.62,55.68l18.27,10.72
			C1397.09,4707.94,1397.09,4769.76,1397.09,4831.58z"/>
		<polygon  points="1410.43,4808.07 1428.71,4818.8 1428.71,4590.44 1410.43,4579.72 		"/>
		<polygon  points="1428.71,4818.8 1451.67,4778.37 1451.67,4550.02 1428.71,4590.44 		"/>
	</g>
	<g id="ascensorLineas">
		<polygon points="941.44,4416.6 904.47,4481.69 1111.3,4603.07 1148.14,4538.22 1190.65,4563.17 1004.57,4890.79 
			962.06,4865.84 998.77,4801.21 791.94,4679.82 755.23,4744.45 712.72,4719.5 898.8,4391.88 		"/>
		<path d="M791.94,4908.17c0-76.12,0-152.23,0-228.35l-36.71,64.63v228.35L791.94,4908.17z"/>
		<path d="M791.94,4908.17l109.56,64.3l97.27-171.26l-206.83-121.39C791.94,4755.94,791.94,4832.06,791.94,4908.17z"/>
	</g>
	<g id="bloqueAtrasLineas">
		<polygon points="524.56,4647.26 492.94,4702.94 474.66,4692.21 451.7,4732.64 684.38,4869.2 755.24,4744.44 
			712.73,4719.5 696.46,4748.15 		"/>
		<path d="M451.7,4961.01l232.67,136.55v-228.35c-77.56-45.52-155.12-91.04-232.67-136.55
			C451.7,4808.77,451.7,4884.89,451.7,4961.01z"/>
		<polygon points="684.37,5097.56 755.23,4972.81 755.23,4744.45 684.37,4869.21 		"/>
		<polygon points="615.6,4444.07 601.91,4468.18 636.14,4488.27 593.5,4563.34 559.27,4543.25 506.29,4636.54 
			696.46,4748.15 805.77,4555.68 		"/>
		<polygon points="524.55,4647.27 506.28,4636.55 506.28,4679.45 		"/>
		<path d="M601.9,4548.56l34.23-60.27c-11.41-6.7-22.82-13.39-34.23-20.09V4548.56z"/>
		<polygon points="615.6,4444.07 629.3,4419.96 663.53,4440.05 706.17,4364.98 671.94,4344.89 724.92,4251.61 
			915.09,4363.22 805.77,4555.68 		"/>
		<polygon points="671.92,4344.91 671.92,4425.27 706.15,4365 		"/>
		<polygon points="743.19,4262.33 774.82,4206.65 756.54,4195.93 779.51,4155.5 1012.18,4292.06 941.32,4416.82 
			898.81,4391.87 915.09,4363.22 		"/>
		<polygon points="756.53,4195.95 756.53,4238.85 774.8,4206.67 		"/>
		<polygon points="1012.16,4292.08 904.47,4481.69 1001.74,4538.77 1012.16,4520.43 		"/>
	</g>
</g>
<rect class="regla" x="534.77" y="5355.5" width="2996.48" height="244.5"/>
<g id="vacio1">
		<path d="M891.2,5218.95l232.68,136.56l22.96-40.43v-42.9l13.35-23.5l18.27,10.72l52.98-93.28v-80.36l8.4-14.8
			l34.23,20.09l27.39-48.22v-80.36l8.4-14.8l34.23,20.09l52.98-93.28v-42.9l13.35-23.5l18.27,10.72l22.96-40.43v-228.35
			l-22.96,40.43l-18.27-10.72l-31.62,55.68l18.27,10.72l-52.98,93.28l-34.23-20.09l-42.64,75.07l34.23,20.09l-27.39,48.22
			l-34.23-20.09l-42.64,75.07l34.23,20.09c-17.66,31.09-35.32,62.19-52.98,93.28l-18.27-10.72l-31.62,55.68l18.27,10.72
			l-22.96,40.43c-77.56-45.52-155.12-91.04-232.68-136.56V5218.95z"/>
		<polygon points="1001.75,4538.77 1012.16,4520.43 1012.16,4292.07 904.47,4481.68 		"/>
		<path d="M451.7,4961l232.68,136.56l70.86-124.76v-228.35l-70.86,124.76c-77.56-45.52-155.12-91.04-232.68-136.56
			C451.7,4808.77,451.7,4884.89,451.7,4961"/>
	</g>
</svg>
