<?xml version="1.0" encoding="utf-8"?>
<!-- Generator: Adobe Illustrator 24.0.2, SVG Export Plug-In . SVG Version: 6.00 Build 0)  -->
<svg version="1.1" id="Capa_1" xmlns="http://www.w3.org/2000/svg" xmlns:xlink="http://www.w3.org/1999/xlink" x="0px" y="0px"
	 viewBox="0 0 1500 600" style="enable-background:new 0 0 1500 600;" xml:space="preserve">
<style type="text/css">
	
	.estrellaA,.estrellaB,.estrellaC,.estrellaD,.estrellaE,.estrellaF,.estrellaG{
		fill:#fff;
			filter: 
			drop-shadow(0px 5px 10px #fff) 
			blur(0px)
			url(#textoSombraAmarilla)
			;
	}
	
	
	
	.realEstate{
		fill:#fff;
		filter:
			/* drop-shadow(0px 5px 10px #FFFFFF)  */
			url(#textoSombra)
		;
	}
	
	.newSlogan{fill:#fff; stroke-width: 1;stroke: black;}
	
	
</style>
<g>
	<path class="realEstate" d="M470.9,257.1c0-8.7-2.3-16.7-6.9-23.9c-4.6-7.2-10.4-12.3-17.5-15.2c-7.1-3-13.7-4.4-19.7-4.4h-66.1v152.3
		h36.6v-59.2h22.3c3.9,0,7.4,1.8,10.3,5.4c2.9,3.6,4.4,8.2,4.4,13.9v40h36.6v-47.8c0-6.2-1.5-11.6-4.5-16.2c-3-4.6-7.2-7.9-12.4-9.8
		l4-3.6C466.6,279.6,470.9,269.1,470.9,257.1z M429.9,270.8c-2.9,3-6.4,4.5-10.5,4.5h-22.1V244h22.3c2.8,0,5.5,0.9,8,2.6
		c2.5,1.8,4.2,3.9,5.2,6.3c1,2.5,1.5,4.8,1.5,6.9C434.2,264.1,432.8,267.8,429.9,270.8z"/>
	<path class="realEstate" d="M536.1,254.6c5.7-5.2,10.6-8.4,14.8-9.4c4.2-1.1,6.8-1.7,7.8-2c1.1-0.3,2.7-0.4,5-0.4v-32.6
		c-17.1,0-32.6,4.7-46.6,13.9c-14,9.3-23.2,20.3-27.6,33c-4.4,12.7-6.7,23.5-6.7,32.3c0,8.9,2.2,19.6,6.7,32.1
		c4.4,12.5,13.6,23.5,27.6,32.9c14,9.4,29.5,14.1,46.6,14.1v-32.9l-7.4-1.1c-17.1-4.4-27.9-14.3-32.4-29.7h40v-31.5h-40
		C526.4,266,530.4,259.8,536.1,254.6z"/>
	<path class="realEstate" d="M633.1,210.8c-17.2,0-30.8,4.9-40.7,14.7c-9.9,9.8-14.9,23-14.9,39.5v100.9h36.6v-51.8H652v51.8h36.6V265
		c0-16.4-5-29.5-15-39.4C663.5,215.7,650.1,210.8,633.1,210.8z M652,284.2h-37.9v-22.5c0-6.2,1.8-11.2,5.3-14.9
		c3.5-3.7,8.1-5.5,13.8-5.5c5.8,0,10.4,1.8,13.8,5.5c3.4,3.7,5.1,8.6,5.1,14.9V284.2z"/>
	<path class="realEstate" d="M743.6,331.8c-2.4-2.4-3.6-5.6-3.6-9.7V213.6h-36.6v113.8c0,15.1,4.9,25.3,14.6,30.6s17.7,7.9,23.9,7.9H776
		v-30.5h-22.6C749.2,335.4,746,334.2,743.6,331.8z"/>
	<path class="realEstate" d="M897.1,254.6c5.7-5.2,10.6-8.4,14.8-9.4c4.2-1.1,6.8-1.7,7.8-2c1.1-0.3,2.7-0.4,5-0.4v-32.6
		c-17.1,0-32.6,4.7-46.6,13.9c-14,9.3-23.2,20.3-27.6,33c-4.4,12.7-6.7,23.5-6.7,32.3c0,8.9,2.2,19.6,6.7,32.1s13.6,23.5,27.6,32.9
		c14,9.4,29.5,14.1,46.6,14.1v-32.9l-7.4-1.1c-17.1-4.4-27.9-14.3-32.4-29.7h40v-31.5h-40C887.3,266,891.4,259.8,897.1,254.6z"/>
	<path class="realEstate" d="M958,223.5c-9.1,7.2-13.6,16.8-13.6,28.8c0,2.8,0.4,6.1,1.1,9.9l10.2,49.1c0.7,4,1.1,7.1,1.1,9.3
		c0,8.9-4.4,13.3-13.1,13.3c-0.6,0-1.6,0-3,0c-1.6,0-3.2-0.4-4.9-1.3v33.4c3.4,0.8,6.8,1.3,10.4,1.3c16.4,0,28.7-3.2,37-9.5
		c8.3-6.3,12.5-15.4,12.5-27.3c0-2.1-0.1-4.2-0.4-6.1c-0.3-2-0.6-4.2-1.1-6.8L984,268.4c-0.6-2.8-0.9-4.6-1-5.3
		c-0.1-0.7-0.1-1.8-0.1-3.4c0-8.6,5.4-12.9,16.1-12.9c1.1,0,2.7,0.3,4.7,0.8v-33.9c-3.1-0.7-5.9-1.1-8.5-1.1
		C979.5,212.7,967.1,216.3,958,223.5z"/>
	<polygon class="realEstate" points="1008.1,244 1039.4,244 1039.4,365.9 1076,365.9 1076,244 1107.3,244 1107.3,213.6 1008.1,213.6 	"/>
	<path class="realEstate" d="M1170.2,210.8c-17.2,0-30.8,4.9-40.7,14.7c-9.9,9.8-14.9,23-14.9,39.5v100.9h36.6v-51.8h37.9v51.8h36.6V265
		c0-16.4-5-29.5-15-39.4C1200.6,215.7,1187.1,210.8,1170.2,210.8z M1189,284.2h-37.9v-22.5c0-6.2,1.8-11.2,5.3-14.9
		c3.5-3.7,8.1-5.5,13.8-5.5c5.8,0,10.4,1.8,13.8,5.5c3.4,3.7,5.1,8.6,5.1,14.9V284.2z"/>
	<polygon class="realEstate" points="1232.8,244 1264.1,244 1264.1,365.9 1300.7,365.9 1300.7,244 1332,244 1332,213.6 1232.8,213.6 	"/>
	<path class="realEstate" d="M1417.5,273.2h-40c2.4-7.2,6.5-13.4,12.2-18.6c5.7-5.2,10.6-8.4,14.8-9.4c4.2-1.1,6.8-1.7,7.8-2
		c1.1-0.3,2.7-0.4,5-0.4v-32.6c-17.1,0-32.6,4.7-46.6,13.9c-14,9.3-23.2,20.3-27.6,33c-4.4,12.7-6.7,23.5-6.7,32.3
		c0,8.9,2.2,19.6,6.7,32.1s13.6,23.5,27.6,32.9c14,9.4,29.5,14.1,46.6,14.1v-32.9l-7.4-1.1c-17.1-4.4-27.9-14.3-32.4-29.7h40V273.2z
		"/>
</g>
<g>
	<path class="newSlogan" d="M387.4,404.2v-6.6h25.9v6.6h-8.2v26.5h-9.6v-26.5H387.4z"/>
	<path class="newSlogan" d="M415.2,430.7v-33.1h17.3c1.6,0,3.3,0.3,5.2,1c1.9,0.6,3.4,1.7,4.6,3.3c1.2,1.6,1.8,3.3,1.8,5.2
		c0,2.6-1.1,4.9-3.4,6.8l-1.1,0.8c1.4,0.4,2.4,1.1,3.2,2.1c0.8,1,1.2,2.2,1.2,3.5v10.4h-9.6V422c0-1.2-0.4-2.2-1.2-3
		c-0.8-0.8-1.7-1.2-2.7-1.2h-5.8v12.9H415.2z M424.7,411h5.8c1.1,0,2-0.3,2.8-1s1.1-1.4,1.1-2.4c0-0.5-0.1-1-0.4-1.5
		c-0.3-0.5-0.7-1-1.4-1.4c-0.6-0.4-1.3-0.6-2.1-0.6h-5.8V411z"/>
	<path class="newSlogan" d="M447.8,430.7v-21.9c0-3.6,1.3-6.4,3.9-8.6s6.1-3.2,10.6-3.2c4.4,0,7.9,1.1,10.6,3.2c2.6,2.1,3.9,5,3.9,8.6
		v21.9h-9.6v-11.3h-9.9v11.3H447.8z M457.4,413h9.9v-4.9c0-1.4-0.4-2.4-1.3-3.2s-2.1-1.2-3.6-1.2c-1.5,0-2.7,0.4-3.6,1.2
		c-0.9,0.8-1.4,1.9-1.4,3.2V413z"/>
	<path class="newSlogan" d="M480.7,430.7v-33.1h18c2.4,0,4.4,0.5,6.3,1.6c1.8,1.1,3,2.4,3.6,3.8c0.6,1.4,0.9,2.6,0.9,3.6
		c0,1.5-0.4,2.9-1.3,4.2c-0.8,1.3-2,2.3-3.5,3c1.6,0.7,2.9,1.7,3.9,3c1,1.3,1.4,2.8,1.4,4.4c0,1.4-0.4,2.9-1.2,4.3
		c-0.8,1.5-2.2,2.7-4,3.7c-1.8,1-3.9,1.5-6,1.5H480.7z M490.5,410.8h5.9c1.4,0,2.4-0.6,3-1.8c0.2-0.4,0.3-0.9,0.4-1.4
		c0-0.9-0.4-1.7-1-2.3c-0.7-0.6-1.5-1-2.5-1h-5.8V410.8z M490.5,424.1h6c1,0,1.9-0.3,2.7-1c0.8-0.7,1.1-1.5,1.1-2.4
		s-0.4-1.8-1.2-2.4c-0.8-0.7-1.7-1-2.7-1h-6V424.1z"/>
	<path class="newSlogan" d="M513.4,430.7v-21.9c0-3.6,1.3-6.4,3.9-8.6s6.1-3.2,10.6-3.2c4.4,0,7.9,1.1,10.6,3.2c2.6,2.1,3.9,5,3.9,8.6
		v21.9h-9.6v-11.3h-9.9v11.3H513.4z M522.9,413h9.9v-4.9c0-1.4-0.4-2.4-1.3-3.2s-2.1-1.2-3.6-1.2c-1.5,0-2.7,0.4-3.6,1.2
		c-0.9,0.8-1.4,1.9-1.4,3.2V413z"/>
	<path class="newSlogan" d="M544.3,430.8v-7.5c0.5,0.2,0.8,0.2,1,0.2c0.1,0,0.3,0,0.5,0c3.5,0,5.3-1.2,5.3-3.7v-22.4h9.6v23.8
		c0,2.8-1.1,5.1-3.2,6.9c-2.2,1.8-5.2,2.7-9.1,2.7h-1.5c-0.3,0-0.6,0-1,0C545.4,431,544.9,430.9,544.3,430.8z"/>
	<path class="newSlogan" d="M564.5,430.7v-21.9c0-3.6,1.3-6.4,3.9-8.6s6.1-3.2,10.6-3.2c4.4,0,7.9,1.1,10.6,3.2c2.6,2.1,3.9,5,3.9,8.6
		v21.9h-9.6v-11.3H574v11.3H564.5z M574,413h9.9v-4.9c0-1.4-0.4-2.4-1.3-3.2s-2.1-1.2-3.6-1.2c-1.5,0-2.7,0.4-3.6,1.2
		c-0.9,0.8-1.4,1.9-1.4,3.2V413z"/>
	<path class="newSlogan" d="M597.4,430.7v-24.7c0-2.5,1-4.7,3.1-6.4c2.1-1.7,4.6-2.6,7.6-2.6c0.5,0,1.6,0.1,3.3,0.2c1.7,0.1,3.7,1.3,6,3.4
		l1.1,1.2l1.1-1.2c2.3-2.1,4.2-3.3,5.9-3.4s2.8-0.2,3.3-0.2c3,0,5.5,0.9,7.6,2.6c2.1,1.8,3.1,3.9,3.1,6.4v24.7h-9.6v-23.8
		c0-1.2-0.4-2-1.3-2.4s-1.6-0.6-2.2-0.6c-0.8,0-1.4,0.2-2,0.5c-0.5,0.3-0.9,0.8-1.2,1.4l-0.2,1.1v23.8h-9.6v-23.8l-0.2-1.1
		c-0.2-0.6-0.6-1.1-1.1-1.4c-0.6-0.4-1.2-0.5-2-0.5c-0.4,0-0.9,0.1-1.7,0.4c-0.7,0.3-1.3,0.8-1.5,1.7l-0.2,0.9v23.8H597.4z"/>
	<path class="newSlogan" d="M642.6,413.9c0-5,1.9-9.1,5.8-12.3c3.9-3.3,8.7-4.9,14.5-4.9c2.9,0,6.1,0.5,9.4,1.6c3.4,1.1,6.2,3.1,8.5,5.9
		c2.3,2.9,3.4,6.1,3.4,9.7c0,2.2-0.6,4.6-1.7,7.4c-1.2,2.7-3.5,5.1-7.1,7.1c-3.6,2-7.5,3-11.9,3c-2.9,0-6-0.6-9.3-1.7
		c-3.3-1.1-6.1-3.1-8.3-6C643.7,420.9,642.6,417.6,642.6,413.9z M652.1,413.8c0,2.9,1,5.4,3.1,7.2s4.8,2.8,8.1,2.8
		c3.3,0,6-0.9,8.1-2.8c2.1-1.9,3.2-4.3,3.2-7.2c0-2.9-1.1-5.2-3.2-7s-4.8-2.8-7.8-2.8c-1.6,0-3.3,0.3-5,1c-1.8,0.6-3.3,1.8-4.5,3.4
		C652.8,409.9,652.1,411.8,652.1,413.8z"/>
	<path class="newSlogan" d="M686.5,430.8v-7.3c0.4,0.2,0.9,0.3,1.3,0.3c0.4,0,0.6,0,0.8,0c2.3,0,3.4-1,3.4-2.9c0-0.5-0.1-1.2-0.3-2
		l-2.7-10.7c-0.2-0.8-0.3-1.5-0.3-2.2c0-2.6,1.2-4.7,3.6-6.3c2.4-1.6,5.6-2.3,9.7-2.3c0.7,0,1.4,0.1,2.2,0.2v7.4
		c-0.5-0.1-0.9-0.2-1.2-0.2c-2.8,0-4.2,0.9-4.2,2.8c0,0.3,0,0.6,0,0.7c0,0.2,0.1,0.5,0.2,1.2l2.7,10.7c0.1,0.6,0.2,1,0.3,1.5
		c0.1,0.4,0.1,0.9,0.1,1.3c0,2.6-1.1,4.6-3.3,5.9c-2.2,1.4-5.4,2.1-9.7,2.1C688.3,431,687.4,430.9,686.5,430.8z"/>
	<path class="newSlogan" d="M724,430.7v-33.1h16.5c3.6,0,6.6,0.9,8.9,2.8c2.3,1.9,3.5,4.3,3.5,7.3c0,3-1.2,5.5-3.5,7.4
		c-2.3,1.9-5.3,2.9-9,2.9h-6.9v12.6H724z M733.5,411.2h6.1c1.1,0,2-0.3,2.7-0.8c0.7-0.6,1-1.3,1-2.3c0-0.5-0.2-1.2-0.6-2.1
		c-0.4-0.9-1.4-1.4-3.2-1.4h-6V411.2z"/>
	<path class="newSlogan" d="M755,413.9c0-5,1.9-9.1,5.8-12.3c3.9-3.3,8.7-4.9,14.5-4.9c2.9,0,6.1,0.5,9.4,1.6s6.2,3.1,8.5,5.9
		s3.4,6.1,3.4,9.7c0,2.2-0.6,4.6-1.7,7.4c-1.2,2.7-3.5,5.1-7.1,7.1c-3.6,2-7.5,3-11.9,3c-2.9,0-6-0.6-9.3-1.7
		c-3.3-1.1-6.1-3.1-8.3-6S755,417.6,755,413.9z M764.6,413.8c0,2.9,1,5.4,3.1,7.2s4.8,2.8,8.1,2.8c3.3,0,6-0.9,8.1-2.8
		c2.1-1.9,3.2-4.3,3.2-7.2c0-2.9-1.1-5.2-3.2-7c-2.2-1.8-4.8-2.8-7.8-2.8c-1.6,0-3.3,0.3-5,1c-1.8,0.6-3.3,1.8-4.5,3.4
		C765.2,409.9,764.6,411.8,764.6,413.8z"/>
	<path class="newSlogan" d="M799.7,430.7v-33.1h17.3c1.6,0,3.3,0.3,5.2,1c1.9,0.6,3.4,1.7,4.6,3.3c1.2,1.6,1.8,3.3,1.8,5.2
		c0,2.6-1.1,4.9-3.4,6.8l-1,0.8c1.4,0.4,2.4,1.1,3.2,2.1c0.8,1,1.2,2.2,1.2,3.5v10.4h-9.6V422c0-1.2-0.4-2.2-1.2-3
		c-0.8-0.8-1.7-1.2-2.7-1.2h-5.8v12.9H799.7z M809.2,411h5.8c1.1,0,2-0.3,2.8-1s1.1-1.4,1.1-2.4c0-0.5-0.1-1-0.4-1.5
		c-0.3-0.5-0.7-1-1.4-1.4c-0.6-0.4-1.3-0.6-2.1-0.6h-5.8V411z"/>
	<path class="newSlogan" d="M847.1,397.6h9.6l1.7,10.7c0.1,0.9,0.6,1.5,1.2,2s1.6,0.8,2.7,0.8c2.4,0,3.8-1,4.1-3l1.6-10.5h9.6l-4.1,26.2
		c-0.4,2.2-1.6,4-3.6,5.4c-2,1.4-4.4,2.1-7.1,2.1c-1.7,0-3.7-0.5-6.1-1.4c-2.4-0.9-3.9-2.3-4.6-4c-0.7-1.7-1.1-2.9-1.2-3.5
		c-0.1-0.6-0.1-1.4-0.1-2.2h9.2l0.1,1.1l0.2,0.6c0.3,0.7,0.6,1.2,1,1.4c0.4,0.2,0.8,0.3,1.2,0.3c0.8,0,1.4-0.3,1.7-0.9
		c0.3-0.6,0.6-1.2,0.7-1.9l0.5-3.6l-1.7,0.2c-0.9,0.1-1.7,0.1-2.5,0.1c-3.4,0-6.2-0.7-8.3-2c-2.1-1.3-3.3-3.1-3.7-5.3L847.1,397.6z"
		/>
	<path class="newSlogan" d="M896.2,430.7v-33.1h16.5c3.6,0,6.6,0.9,8.9,2.8c2.3,1.9,3.5,4.3,3.5,7.3c0,3-1.2,5.5-3.5,7.4
		c-2.3,1.9-5.3,2.9-9,2.9h-6.9v12.6H896.2z M905.8,411.2h6.1c1.1,0,2-0.3,2.7-0.8c0.7-0.6,1-1.3,1-2.3c0-0.5-0.2-1.2-0.6-2.1
		s-1.4-1.4-3.2-1.4h-6V411.2z"/>
	<path class="newSlogan" d="M928,430.7v-21.9c0-3.6,1.3-6.4,3.9-8.6s6.1-3.2,10.6-3.2c4.4,0,7.9,1.1,10.6,3.2c2.6,2.1,3.9,5,3.9,8.6v21.9
		h-9.6v-11.3h-9.9v11.3H928z M937.5,413h9.9v-4.9c0-1.4-0.4-2.4-1.3-3.2s-2.1-1.2-3.6-1.2c-1.5,0-2.7,0.4-3.6,1.2
		c-0.9,0.8-1.4,1.9-1.4,3.2V413z"/>
	<path class="newSlogan" d="M960.9,430.7v-33.1h17.3c1.6,0,3.3,0.3,5.2,1c1.9,0.6,3.4,1.7,4.6,3.3c1.2,1.6,1.8,3.3,1.8,5.2
		c0,2.6-1.1,4.9-3.4,6.8l-1,0.8c1.4,0.4,2.4,1.1,3.2,2.1c0.8,1,1.2,2.2,1.2,3.5v10.4h-9.6V422c0-1.2-0.4-2.2-1.2-3
		c-0.8-0.8-1.7-1.2-2.7-1.2h-5.8v12.9H960.9z M970.4,411h5.8c1.1,0,2-0.3,2.8-1s1.1-1.4,1.1-2.4c0-0.5-0.1-1-0.4-1.5
		c-0.3-0.5-0.7-1-1.4-1.4c-0.6-0.4-1.3-0.6-2.1-0.6h-5.8V411z"/>
	<path class="newSlogan" d="M993.5,430.7v-21.9c0-3.6,1.3-6.4,3.9-8.6s6.1-3.2,10.6-3.2c4.4,0,7.9,1.1,10.6,3.2c2.6,2.1,3.9,5,3.9,8.6
		v21.9h-9.6v-11.3h-9.9v11.3H993.5z M1003.1,413h9.9v-4.9c0-1.4-0.4-2.4-1.3-3.2s-2.1-1.2-3.6-1.2c-1.5,0-2.7,0.4-3.6,1.2
		c-0.9,0.8-1.4,1.9-1.4,3.2V413z"/>
	<path class="newSlogan" d="M1041,404.2v-6.6h25.9v6.6h-8.2v26.5h-9.6v-26.5H1041z"/>
	<path class="newSlogan" d="M1068.8,419.9v-22.3h9.6v23c0,0.9,0.3,1.6,0.9,2.3c0.6,0.7,1.3,1.1,2,1.3c0.8,0.2,1.4,0.3,2,0.3
		c1.4,0,2.6-0.4,3.5-1.1c1-0.8,1.5-1.7,1.5-2.8v-22.9h9.6v22.2c0,2.4-0.8,4.6-2.3,6.5c-1.5,1.9-3.2,3.2-5.1,3.8
		c-1.8,0.6-3.3,1-4.3,1.1c-1,0.2-2,0.2-3,0.2c-4,0-7.4-1.1-10.1-3.3C1070.2,425.9,1068.8,423.1,1068.8,419.9z"/>
	<path class="newSlogan" d="M1116.2,404.2v-6.6h25.9v6.6h-8.2v26.5h-9.6v-26.5H1116.2z"/>
	<path class="newSlogan" d="M1144,430.7v-33.1h17.3c1.6,0,3.3,0.3,5.2,1c1.9,0.6,3.4,1.7,4.6,3.3c1.2,1.6,1.8,3.3,1.8,5.2
		c0,2.6-1.1,4.9-3.4,6.8l-1,0.8c1.4,0.4,2.4,1.1,3.2,2.1c0.8,1,1.2,2.2,1.2,3.5v10.4h-9.6V422c0-1.2-0.4-2.2-1.2-3
		c-0.8-0.8-1.7-1.2-2.7-1.2h-5.8v12.9H1144z M1153.6,411h5.8c1.1,0,2-0.3,2.8-1s1.1-1.4,1.1-2.4c0-0.5-0.1-1-0.4-1.5
		c-0.3-0.5-0.7-1-1.4-1.4c-0.6-0.4-1.3-0.6-2.1-0.6h-5.8V411z"/>
	<path class="newSlogan" d="M1176.7,430.7v-21.9c0-3.6,1.3-6.4,3.9-8.6s6.1-3.2,10.6-3.2c4.4,0,7.9,1.1,10.6,3.2c2.6,2.1,3.9,5,3.9,8.6
		v21.9h-9.6v-11.3h-9.9v11.3H1176.7z M1186.3,413h9.9v-4.9c0-1.4-0.4-2.4-1.3-3.2s-2.1-1.2-3.6-1.2c-1.5,0-2.7,0.4-3.6,1.2
		c-0.9,0.8-1.4,1.9-1.4,3.2V413z"/>
	<path class="newSlogan" d="M1209.6,430.7v-22.1c0-3.3,1.4-6.1,4.1-8.3c2.7-2.2,6.2-3.3,10.5-3.3c4.2,0,7.6,1.1,10.4,3.3
		c2.7,2.2,4.1,5,4.1,8.3v22.1h-9.6v-22.8c0-0.8-0.3-1.5-0.9-2.2c-0.6-0.7-1.3-1.2-2-1.4c-0.8-0.3-1.4-0.4-2-0.4
		c-0.6,0-1.2,0.1-2,0.4s-1.5,0.7-2.1,1.4c-0.6,0.7-0.9,1.4-0.9,2.3v22.8H1209.6z"/>
	<path class="newSlogan" d="M1279.8,422.5l4,3.2l-6.2,5.7l-4.2-3.1c-1.7,1-3.5,1.8-5.4,2.3c-1.9,0.5-3.9,0.8-5.9,0.8c-3.9,0-7.6-1-11-2.9
		c-3.4-1.9-5.7-4-6.8-6.3c-1.1-2.3-1.8-4-2.1-5.1s-0.4-2.3-0.4-3.5c0-4.6,2-8.6,6-11.9c4-3.3,8.9-5,14.9-5c2.7,0,5.7,0.5,9,1.6
		c3.3,1.1,6.1,3,8.4,5.8c2.3,2.8,3.4,5.8,3.4,9.1c0,1.6-0.3,3.2-0.9,4.8C1281.9,419.6,1281,421.1,1279.8,422.5z M1251.3,413.8
		c0,1.3,0.3,2.7,0.9,4c0.6,1.3,1.4,2.4,2.5,3.4c1.1,1,2.3,1.7,3.7,2.2s2.9,0.7,4.4,0.7c3.4,0,5.8-0.8,7.3-2.3c1.5-1.5,2.5-2.9,3-4.1
		c0.5-1.2,0.7-2.5,0.7-3.7c0-2.9-0.8-5.1-2.4-6.5c-1.6-1.4-3.1-2.4-4.5-2.8c-1.4-0.5-2.8-0.7-4.3-0.7c-1.6,0-3.1,0.2-4.4,0.7
		c-1.4,0.5-2.6,1.2-3.6,2.1c-1.1,1-1.9,2-2.5,3.3C1251.6,411.2,1251.3,412.5,1251.3,413.8z"/>
	<path class="newSlogan" d="M1285.7,419.9v-22.3h9.6v23c0,0.9,0.3,1.6,0.9,2.3c0.6,0.7,1.3,1.1,2,1.3c0.8,0.2,1.4,0.3,2,0.3
		c1.4,0,2.6-0.4,3.5-1.1c1-0.8,1.5-1.7,1.5-2.8v-22.9h9.6v22.2c0,2.4-0.8,4.6-2.3,6.5c-1.5,1.9-3.2,3.2-5.1,3.8
		c-1.8,0.6-3.3,1-4.3,1.1c-1,0.2-2,0.2-3,0.2c-4,0-7.4-1.1-10.1-3.3C1287.1,425.9,1285.7,423.1,1285.7,419.9z"/>
	<path class="newSlogan" d="M1318.6,430.7v-33.1h9.6v33.1H1318.6z"/>
	<path class="newSlogan" d="M1332,422.3v-24.7h9.6v23.6c0,0.9,0.3,1.6,0.9,2.1c0.6,0.5,1.5,0.8,2.5,0.8h5.9v6.6h-8.9
		c-1.6,0-3.7-0.6-6.2-1.7C1333.3,427.8,1332,425.6,1332,422.3z"/>
	<path class="newSlogan" d="M1352.9,430.7v-33.1h9.6v33.1H1352.9z"/>
	<path class="newSlogan" d="M1366.3,398.3c0.6-0.2,1.2-0.4,1.8-0.5c0.6-0.2,1.5-0.3,2.7-0.5c1.2-0.2,2.7-0.3,4.3-0.3c4.6,0,8.7,1,12.3,2.9
		s6,4.3,7.3,7.1c1.3,2.8,1.9,5.3,1.9,7.7c0,3.5-1.2,6.7-3.5,9.6c-2.3,2.9-4.8,4.7-7.5,5.5c-2.7,0.8-4.8,1.3-6.4,1.5
		c-1.6,0.2-3.3,0.3-5.2,0.3c-1.4,0-2.7-0.1-3.9-0.4c-1.3-0.2-2.5-0.6-3.9-1V398.3z M1375.9,405.1v18.2c0.9,0,2.1-0.2,3.8-0.5
		c1.6-0.3,3.2-1.3,4.7-3c1.5-1.6,2.2-3.5,2.2-5.6c0-1-0.3-2.2-0.8-3.5s-1.6-2.5-3.1-3.6c-1.6-1.1-3.4-1.7-5.4-2H1375.9z"/>
	<path class="newSlogan" d="M1399.7,430.7v-21.9c0-3.6,1.3-6.4,3.9-8.6s6.1-3.2,10.6-3.2c4.4,0,7.9,1.1,10.6,3.2c2.6,2.1,3.9,5,3.9,8.6
		v21.9h-9.6v-11.3h-9.9v11.3H1399.7z M1409.3,413h9.9v-4.9c0-1.4-0.4-2.4-1.3-3.2s-2.1-1.2-3.6-1.2c-1.5,0-2.7,0.4-3.6,1.2
		c-0.9,0.8-1.4,1.9-1.4,3.2V413z"/>
	<path class="newSlogan" d="M1432.6,398.3c0.6-0.2,1.2-0.4,1.8-0.5c0.6-0.2,1.5-0.3,2.7-0.5c1.2-0.2,2.7-0.3,4.3-0.3c4.6,0,8.7,1,12.3,2.9
		s6,4.3,7.3,7.1c1.3,2.8,1.9,5.3,1.9,7.7c0,3.5-1.2,6.7-3.5,9.6c-2.3,2.9-4.8,4.7-7.5,5.5c-2.7,0.8-4.8,1.3-6.4,1.5
		c-1.6,0.2-3.3,0.3-5.2,0.3c-1.4,0-2.7-0.1-3.9-0.4c-1.3-0.2-2.5-0.6-3.9-1V398.3z M1442.2,405.1v18.2c0.9,0,2.1-0.2,3.8-0.5
		c1.6-0.3,3.2-1.3,4.7-3c1.5-1.6,2.2-3.5,2.2-5.6c0-1-0.3-2.2-0.8-3.5s-1.6-2.5-3.1-3.6c-1.6-1.1-3.4-1.7-5.4-2H1442.2z"/>
	<path class="newSlogan" d="M387.4,459.4v-6.6h25.9v6.6h-8.2v26.5h-9.6v-26.5H387.4z"/>
	<path class="newSlogan" d="M418.8,475v-22.3h9.6v23c0,0.9,0.3,1.6,0.9,2.3s1.3,1.1,2,1.3c0.8,0.2,1.4,0.3,2,0.3c1.4,0,2.6-0.4,3.5-1.1
		c1-0.8,1.5-1.7,1.5-2.8v-22.9h9.6V475c0,2.4-0.8,4.6-2.3,6.5c-1.5,1.9-3.2,3.2-5.1,3.8c-1.8,0.6-3.3,1-4.3,1.1c-1,0.2-2,0.2-3,0.2
		c-4,0-7.4-1.1-10.1-3.3C420.2,481.1,418.8,478.3,418.8,475z"/>
	<path class="newSlogan" d="M475.4,485.9V464c0-3.6,1.3-6.4,3.9-8.6s6.1-3.2,10.6-3.2c4.4,0,7.9,1.1,10.6,3.2c2.6,2.1,3.9,5,3.9,8.6v21.9
		h-9.6v-11.3H485v11.3H475.4z M485,468.1h9.9v-4.9c0-1.4-0.4-2.4-1.3-3.2s-2.1-1.2-3.6-1.2c-1.5,0-2.7,0.4-3.6,1.2
		c-0.9,0.8-1.4,1.9-1.4,3.2V468.1z"/>
	<path class="newSlogan" d="M511.2,485.9v-7.3c0.4,0.2,0.9,0.3,1.3,0.3c0.4,0,0.6,0,0.8,0c2.3,0,3.4-1,3.4-2.9c0-0.5-0.1-1.2-0.3-2
		l-2.7-10.7c-0.2-0.8-0.3-1.5-0.3-2.2c0-2.6,1.2-4.7,3.6-6.3c2.4-1.6,5.6-2.3,9.7-2.3c0.7,0,1.4,0.1,2.2,0.2v7.4
		c-0.5-0.1-0.9-0.2-1.2-0.2c-2.8,0-4.2,0.9-4.2,2.8c0,0.3,0,0.6,0,0.7c0,0.2,0.1,0.5,0.2,1.2l2.7,10.7c0.1,0.6,0.2,1,0.3,1.5
		c0.1,0.4,0.1,0.9,0.1,1.3c0,2.6-1.1,4.6-3.3,5.9c-2.2,1.4-5.4,2.1-9.7,2.1C512.9,486.2,512,486.1,511.2,485.9z"/>
	<path class="newSlogan" d="M556,452v7.1c-0.6,0-1,0-1.3,0.1c-0.3,0.1-1,0.2-2,0.4c-1.1,0.2-2.4,0.9-3.9,2s-2.6,2.5-3.2,4h10.4v6.9h-10.4
		c1.2,3.4,4,5.5,8.5,6.5l1.9,0.2v7.2c-4.5,0-8.5-1-12.2-3.1c-3.6-2-6.1-4.4-7.2-7.1c-1.2-2.7-1.7-5.1-1.7-7c0-1.9,0.6-4.3,1.7-7
		s3.6-5.1,7.2-7.2C547.5,453.1,551.6,452,556,452z"/>
	<path class="newSlogan" d="M562.5,485.9v-7.3c0.4,0.2,0.9,0.3,1.3,0.3c0.4,0,0.6,0,0.8,0c2.3,0,3.4-1,3.4-2.9c0-0.5-0.1-1.2-0.3-2
		l-2.7-10.7c-0.2-0.8-0.3-1.5-0.3-2.2c0-2.6,1.2-4.7,3.6-6.3c2.4-1.6,5.6-2.3,9.7-2.3c0.7,0,1.4,0.1,2.2,0.2v7.4
		c-0.5-0.1-0.9-0.2-1.2-0.2c-2.8,0-4.2,0.9-4.2,2.8c0,0.3,0,0.6,0,0.7c0,0.2,0.1,0.5,0.2,1.2l2.7,10.7c0.1,0.6,0.2,1,0.3,1.5
		c0.1,0.4,0.1,0.9,0.1,1.3c0,2.6-1.1,4.6-3.3,5.9c-2.2,1.4-5.4,2.1-9.7,2.1C564.3,486.2,563.4,486.1,562.5,485.9z"/>
	<path class="newSlogan" d="M586.3,469.1c0-5,1.9-9.1,5.8-12.3c3.9-3.3,8.7-4.9,14.5-4.9c2.9,0,6.1,0.5,9.4,1.6c3.4,1.1,6.2,3.1,8.5,5.9
		c2.3,2.9,3.4,6.1,3.4,9.7c0,2.2-0.6,4.6-1.7,7.4c-1.2,2.7-3.5,5.1-7.1,7.1c-3.6,2-7.5,3-11.9,3c-2.9,0-6-0.6-9.3-1.7
		c-3.3-1.1-6.1-3.1-8.3-6C587.4,476.1,586.3,472.8,586.3,469.1z M595.8,469c0,2.9,1,5.4,3.1,7.2s4.8,2.8,8.1,2.8
		c3.3,0,6-0.9,8.1-2.8c2.1-1.9,3.2-4.3,3.2-7.2c0-2.9-1.1-5.2-3.2-7s-4.8-2.8-7.8-2.8c-1.6,0-3.3,0.3-5,1c-1.8,0.6-3.3,1.8-4.5,3.4
		C596.4,465.1,595.8,466.9,595.8,469z"/>
	<path class="newSlogan" d="M634.5,485.9v-33.1h17.3c1.6,0,3.3,0.3,5.2,1c1.9,0.6,3.4,1.7,4.6,3.3c1.2,1.6,1.8,3.3,1.8,5.2
		c0,2.6-1.1,4.9-3.4,6.8l-1.1,0.8c1.4,0.4,2.4,1.1,3.2,2.1c0.8,1,1.2,2.2,1.2,3.5v10.4h-9.6v-8.7c0-1.2-0.4-2.2-1.2-3
		c-0.8-0.8-1.7-1.2-2.7-1.2h-5.8v12.9H634.5z M644.1,466.2h5.8c1.1,0,2-0.3,2.8-1s1.1-1.4,1.1-2.4c0-0.5-0.1-1-0.4-1.5
		c-0.3-0.5-0.7-1-1.4-1.4c-0.6-0.4-1.3-0.6-2.1-0.6h-5.8V466.2z"/>
	<path class="newSlogan" d="M690.9,485.9v-33.1h9.6v33.1H690.9z"/>
	<path class="newSlogan" d="M707.9,485.9v-22.1c0-3.3,1.4-6.1,4.1-8.3c2.7-2.2,6.2-3.3,10.5-3.3c4.2,0,7.6,1.1,10.4,3.3
		c2.7,2.2,4.1,5,4.1,8.3v22.1h-9.6v-22.8c0-0.8-0.3-1.5-0.9-2.2c-0.6-0.7-1.3-1.2-2-1.4c-0.8-0.3-1.4-0.4-2-0.4
		c-0.6,0-1.2,0.1-2,0.4c-0.8,0.2-1.5,0.7-2.1,1.4c-0.6,0.7-0.9,1.4-0.9,2.3v22.8H707.9z"/>
	<path class="newSlogan" d="M744.5,485.9v-24.7c0-2.5,1-4.7,3.1-6.4c2.1-1.7,4.6-2.6,7.6-2.6c0.5,0,1.6,0.1,3.3,0.2c1.7,0.1,3.7,1.3,6,3.4
		l1.1,1.2l1.1-1.2c2.2-2.1,4.2-3.3,5.9-3.4s2.8-0.2,3.3-0.2c3,0,5.5,0.9,7.6,2.6c2.1,1.8,3.1,3.9,3.1,6.4v24.7H777v-23.8
		c0-1.2-0.4-2-1.3-2.4c-0.9-0.4-1.6-0.6-2.2-0.6c-0.8,0-1.4,0.2-2,0.5c-0.5,0.3-0.9,0.8-1.2,1.4l-0.2,1.1v23.8h-9.6v-23.8l-0.2-1.1
		c-0.2-0.6-0.6-1.1-1.1-1.4c-0.6-0.4-1.2-0.5-2-0.5c-0.4,0-0.9,0.1-1.7,0.4c-0.7,0.3-1.3,0.8-1.5,1.7l-0.2,0.9v23.8H744.5z"/>
	<path class="newSlogan" d="M793.3,469.1c0-5,1.9-9.1,5.8-12.3c3.9-3.3,8.7-4.9,14.5-4.9c2.9,0,6.1,0.5,9.4,1.6s6.2,3.1,8.5,5.9
		s3.4,6.1,3.4,9.7c0,2.2-0.6,4.6-1.7,7.4c-1.2,2.7-3.5,5.1-7.1,7.1c-3.6,2-7.5,3-11.9,3c-2.9,0-6-0.6-9.3-1.7
		c-3.3-1.1-6.1-3.1-8.3-6S793.3,472.8,793.3,469.1z M802.8,469c0,2.9,1,5.4,3.1,7.2s4.8,2.8,8.1,2.8c3.3,0,6-0.9,8.1-2.8
		c2.1-1.9,3.2-4.3,3.2-7.2c0-2.9-1.1-5.2-3.2-7c-2.2-1.8-4.8-2.8-7.8-2.8c-1.6,0-3.3,0.3-5,1c-1.8,0.6-3.3,1.8-4.5,3.4
		C803.4,465.1,802.8,466.9,802.8,469z"/>
	<path class="newSlogan" d="M841.5,485.9v-33.1h18c2.4,0,4.4,0.5,6.3,1.6c1.8,1.1,3,2.4,3.6,3.8c0.6,1.4,0.9,2.6,0.9,3.6
		c0,1.5-0.4,2.9-1.3,4.2c-0.8,1.3-2,2.3-3.5,3c1.6,0.7,2.9,1.7,3.9,3s1.4,2.8,1.4,4.4c0,1.4-0.4,2.9-1.2,4.3s-2.2,2.7-4,3.7
		c-1.8,1-3.9,1.5-6,1.5H841.5z M851.3,466h5.9c1.4,0,2.4-0.6,3-1.8c0.2-0.4,0.3-0.9,0.4-1.4c0-0.9-0.4-1.7-1.1-2.3
		c-0.7-0.6-1.5-1-2.5-1h-5.8V466z M851.3,479.3h6c1,0,1.9-0.3,2.7-1c0.8-0.7,1.1-1.5,1.1-2.4s-0.4-1.8-1.2-2.4c-0.8-0.7-1.7-1-2.7-1
		h-6V479.3z"/>
	<path class="newSlogan" d="M877.8,485.9v-33.1h9.6v33.1H877.8z"/>
	<path class="newSlogan" d="M894.8,477.5v-24.7h9.6v23.6c0,0.9,0.3,1.6,0.9,2.1c0.6,0.5,1.5,0.8,2.5,0.8h5.9v6.6h-8.9
		c-1.6,0-3.7-0.6-6.2-1.7C896,483,894.8,480.8,894.8,477.5z"/>
	<path class="newSlogan" d="M919.2,485.9v-33.1h9.6v33.1H919.2z"/>
	<path class="newSlogan" d="M936.2,485.9V464c0-3.6,1.3-6.4,3.9-8.6s6.1-3.2,10.6-3.2c4.4,0,7.9,1.1,10.6,3.2c2.6,2.1,3.9,5,3.9,8.6v21.9
		h-9.6v-11.3h-9.9v11.3H936.2z M945.8,468.1h9.9v-4.9c0-1.4-0.4-2.4-1.3-3.2s-2.1-1.2-3.6-1.2c-1.5,0-2.7,0.4-3.6,1.2
		c-0.9,0.8-1.4,1.9-1.4,3.2V468.1z"/>
	<path class="newSlogan" d="M972.7,485.9v-33.1H990c1.6,0,3.3,0.3,5.2,1c1.9,0.6,3.4,1.7,4.6,3.3c1.2,1.6,1.8,3.3,1.8,5.2
		c0,2.6-1.1,4.9-3.4,6.8l-1,0.8c1.4,0.4,2.4,1.1,3.2,2.1c0.8,1,1.2,2.2,1.2,3.5v10.4h-9.6v-8.7c0-1.2-0.4-2.2-1.2-3
		c-0.8-0.8-1.7-1.2-2.7-1.2h-5.8v12.9H972.7z M982.2,466.2h5.8c1.1,0,2-0.3,2.8-1s1.1-1.4,1.1-2.4c0-0.5-0.1-1-0.4-1.5
		c-0.3-0.5-0.7-1-1.4-1.4c-0.6-0.4-1.3-0.6-2.1-0.6h-5.8V466.2z"/>
	<path class="newSlogan" d="M1008.9,485.9v-33.1h9.6v33.1H1008.9z"/>
	<path class="newSlogan" d="M1025.2,469.1c0-5,1.9-9.1,5.8-12.3c3.9-3.3,8.7-4.9,14.5-4.9c2.9,0,6.1,0.5,9.4,1.6s6.2,3.1,8.5,5.9
		s3.4,6.1,3.4,9.7c0,2.2-0.6,4.6-1.7,7.4c-1.2,2.7-3.5,5.1-7.1,7.1c-3.6,2-7.5,3-11.9,3c-2.9,0-6-0.6-9.3-1.7
		c-3.3-1.1-6.1-3.1-8.3-6S1025.2,472.8,1025.2,469.1z M1034.8,469c0,2.9,1,5.4,3.1,7.2s4.8,2.8,8.1,2.8c3.3,0,6-0.9,8.1-2.8
		c2.1-1.9,3.2-4.3,3.2-7.2c0-2.9-1.1-5.2-3.2-7c-2.2-1.8-4.8-2.8-7.8-2.8c-1.6,0-3.3,0.3-5,1c-1.8,0.6-3.3,1.8-4.5,3.4
		C1035.4,465.1,1034.8,466.9,1034.8,469z"/>
	<path class="newSlogan" d="M1093.6,453.5c0.6-0.2,1.2-0.4,1.8-0.5c0.6-0.2,1.5-0.3,2.7-0.5c1.2-0.2,2.7-0.3,4.3-0.3c4.6,0,8.7,1,12.3,2.9
		s6,4.3,7.3,7.1c1.3,2.8,1.9,5.3,1.9,7.7c0,3.5-1.2,6.7-3.5,9.6c-2.3,2.9-4.8,4.7-7.5,5.5c-2.7,0.8-4.8,1.3-6.4,1.5
		c-1.6,0.2-3.3,0.3-5.2,0.3c-1.4,0-2.7-0.1-3.9-0.4c-1.3-0.2-2.5-0.6-3.9-1V453.5z M1103.2,460.3v18.2c0.9,0,2.1-0.2,3.8-0.5
		c1.6-0.3,3.2-1.3,4.7-3c1.5-1.6,2.2-3.5,2.2-5.6c0-1-0.3-2.2-0.8-3.5s-1.6-2.5-3.1-3.6c-1.6-1.1-3.4-1.7-5.4-2H1103.2z"/>
	<path class="newSlogan" d="M1151.1,452v7.1c-0.6,0-1,0-1.3,0.1c-0.3,0.1-1,0.2-2,0.4c-1.1,0.2-2.4,0.9-3.9,2c-1.5,1.1-2.6,2.5-3.2,4h10.4
		v6.9h-10.4c1.2,3.4,4,5.5,8.5,6.5l1.9,0.2v7.2c-4.5,0-8.5-1-12.2-3.1c-3.6-2-6.1-4.4-7.2-7.1c-1.2-2.7-1.7-5.1-1.7-7
		c0-1.9,0.6-4.3,1.7-7c1.2-2.8,3.6-5.1,7.2-7.2C1142.6,453.1,1146.6,452,1151.1,452z"/>
	<path class="newSlogan" d="M1198.3,452.2v7.8c-2.3,0-4.4,0.6-6.3,1.7c-1.9,1.1-3.1,2.3-3.6,3.5c-0.5,1.2-0.8,2.1-0.9,2.8
		s-0.2,1.1-0.2,1.6c0,2.1,0.8,4,2.3,5.6c1.6,1.7,3.1,2.7,4.5,3c1.5,0.3,2.4,0.5,3,0.6c0.5,0.1,0.9,0.1,1.2,0.1v7.4
		c-4.4,0-8.4-1-11.9-3.1c-3.6-2.1-5.9-4.4-7-7.1c-1.1-2.7-1.6-4.9-1.6-6.7c0-2.6,0.7-5,2-7.3c1.3-2.3,3.5-4.5,6.6-6.7
		C1189.4,453.3,1193.4,452.2,1198.3,452.2z"/>
	<path class="newSlogan" d="M1204.6,469.1c0-5,1.9-9.1,5.8-12.3c3.9-3.3,8.7-4.9,14.5-4.9c2.9,0,6.1,0.5,9.4,1.6s6.2,3.1,8.5,5.9
		s3.4,6.1,3.4,9.7c0,2.2-0.6,4.6-1.7,7.4c-1.2,2.7-3.5,5.1-7.1,7.1c-3.6,2-7.5,3-11.9,3c-2.9,0-6-0.6-9.3-1.7
		c-3.3-1.1-6.1-3.1-8.3-6S1204.6,472.8,1204.6,469.1z M1214.1,469c0,2.9,1,5.4,3.1,7.2s4.8,2.8,8.1,2.8c3.3,0,6-0.9,8.1-2.8
		c2.1-1.9,3.2-4.3,3.2-7.2c0-2.9-1.1-5.2-3.2-7c-2.2-1.8-4.8-2.8-7.8-2.8c-1.6,0-3.3,0.3-5,1c-1.8,0.6-3.3,1.8-4.5,3.4
		C1214.7,465.1,1214.1,466.9,1214.1,469z"/>
	<path class="newSlogan" d="M1252.8,485.9v-22.1c0-3.3,1.4-6.1,4.1-8.3c2.7-2.2,6.2-3.3,10.5-3.3c4.2,0,7.6,1.1,10.4,3.3
		c2.7,2.2,4.1,5,4.1,8.3v22.1h-9.6v-22.8c0-0.8-0.3-1.5-0.9-2.2c-0.6-0.7-1.3-1.2-2-1.4c-0.8-0.3-1.4-0.4-2-0.4
		c-0.6,0-1.2,0.1-2,0.4s-1.5,0.7-2.1,1.4c-0.6,0.7-0.9,1.4-0.9,2.3v22.8H1252.8z"/>
	<path class="newSlogan" d="M1289.3,485.9v-24.7c0-3.3,1.3-5.5,3.8-6.6c2.5-1.2,4.6-1.7,6.2-1.7h8.9v6.6h-5.9c-1,0-1.8,0.3-2.5,0.8
		c-0.7,0.5-1,1.2-1,2.1v4.4h9.4v6.8h-9.4v12.4H1289.3z"/>
	<path class="newSlogan" d="M1315,485.9v-33.1h9.6v33.1H1315z"/>
	<path class="newSlogan" d="M1332,485.9V464c0-3.6,1.3-6.4,3.9-8.6s6.1-3.2,10.6-3.2c4.4,0,7.9,1.1,10.6,3.2c2.6,2.1,3.9,5,3.9,8.6v21.9
		h-9.6v-11.3h-9.9v11.3H1332z M1341.5,468.1h9.9v-4.9c0-1.4-0.4-2.4-1.3-3.2s-2.1-1.2-3.6-1.2c-1.5,0-2.7,0.4-3.6,1.2
		c-0.9,0.8-1.4,1.9-1.4,3.2V468.1z"/>
	<path class="newSlogan" d="M1368.5,485.9v-22.1c0-3.3,1.4-6.1,4.1-8.3c2.7-2.2,6.2-3.3,10.5-3.3c4.2,0,7.6,1.1,10.4,3.3
		c2.7,2.2,4.1,5,4.1,8.3v22.1h-9.6v-22.8c0-0.8-0.3-1.5-0.9-2.2c-0.6-0.7-1.3-1.2-2-1.4c-0.8-0.3-1.4-0.4-2-0.4
		c-0.6,0-1.2,0.1-2,0.4s-1.5,0.7-2.1,1.4c-0.6,0.7-0.9,1.4-0.9,2.3v22.8H1368.5z"/>
	<path class="newSlogan" d="M1405.3,479.4l14.8-19.6h-14.7v-7h23c1.2,0,2.2,0.4,3,1.1c0.8,0.8,1.3,1.7,1.3,2.8c0,0.5-0.1,0.9-0.2,1.2
		c-0.1,0.3-0.2,0.5-0.4,0.7s-0.2,0.3-0.4,0.6l-15,19.8h14.8v6.9h-22.4l-1.4-0.1c-1.1-0.2-2-0.6-2.7-1.3s-1-1.4-1-2.2
		c0-0.5,0.1-1,0.4-1.4L1405.3,479.4z"/>
	<path class="newSlogan" d="M1439.2,485.9V464c0-3.6,1.3-6.4,3.9-8.6s6.1-3.2,10.6-3.2c4.4,0,7.9,1.1,10.6,3.2c2.6,2.1,3.9,5,3.9,8.6v21.9
		h-9.6v-11.3h-9.9v11.3H1439.2z M1448.7,468.1h9.9v-4.9c0-1.4-0.4-2.4-1.3-3.2s-2.1-1.2-3.6-1.2c-1.5,0-2.7,0.4-3.6,1.2
		c-0.9,0.8-1.4,1.9-1.4,3.2V468.1z"/>
</g>
<polygon id="g" class="estrellaG" points="350.1,129.4 391.6,123.2 345.9,150.6 347.5,185.4 322.5,167.3 278.4,197.9 305.4,158.9 
	280.5,145.5 325.7,135.6 353.2,101.3 "/>
<polygon id="f" class="estrellaF" points="207.3,171.9 164.7,181.8 189.1,192.2 160.6,227 202.6,199.5 226.5,217.1 229.1,184.9 
	271.1,163.1 231.7,168.3 236.4,139.2 "/>
<polygon id="e" class="estrellaE" points="84.2,247.2 44.8,266.4 71.3,269.5 60.4,300.7 95.6,270.1 129.4,270.1 116.4,248.8 148.1,218.1 
	106,237.9 96.7,214 "/>
<path id="d" class="estrellaD" d="M60.9,369.7L24,390l27,1c0,0-10.4,29.1-10.4,31.2c0,2.1,32.7-33.8,32.7-33.8L105,391l-11.9-20.2l24.4-28
	l-34.8,17.1l-13.5-22.3L60.9,369.7z"/>
<path id="c" class="estrellaC" d="M94.1,462.2c0,0-20.8,17.7-22.3,18.7c-1.5,1,23.9-2.1,23.9-2.1s1,18.7,1,20.2c0,1.6,19.8-29.6,19.8-29.6
	l30.1-7.3l-14-10.9l12.5-23.4l-28,17.1l-23.4-5.7L94.1,462.2z"/>
<path id="b" class="estrellaB" d="M188.6,468.4l-24.9,6.7l12.5,3.6c0,0-5.7,20.2-5.2,21.8c0.5,1.6,21.3-17.1,21.3-17.1l11.4,6.2l1.5-17.1
	l19.7-15.6l-21.3,5.7l-4.7-13L188.6,468.4z"/>
<polygon id="a" class="estrellaA" points="262.3,446.6 242,459.1 255.6,460.6 256.1,475.7 271.6,457.5 286.2,461.1 281.5,448.1 294,430.5 
	275.8,439.3 267,427.9 "/>


<filter id="textoSombra">
    <feDiffuseLighting in="SourceGraphic" result="light" lighting-color="#00FFFF">
      <fePointLight x="150" y="150" z="150" />
    </feDiffuseLighting>

    <feComposite
      in="SourceGraphic"
      in2="light"
      operator="arithmetic"
      k1="1"
      k2="0"
      k3="0"
      k4="0" />
</filter>
<filter id="textoSombraAmarilla">
    <feDiffuseLighting in="SourceGraphic" result="light" lighting-color="#FFFF00">
      <fePointLight x="150" y="150" z="150" />
    </feDiffuseLighting>

    <feComposite
      in="SourceGraphic"
      in2="light"
      operator="arithmetic"
      k1="1"
      k2="0"
      k3="0"
      k4="0" />
</filter>
</svg>
