<?xml version="1.0" encoding="utf-8"?>
<!-- Generator: Adobe Illustrator 27.9.0, SVG Export Plug-In . SVG Version: 6.00 Build 0)  -->
<svg version="1.1" id="Layer_1" xmlns="http://www.w3.org/2000/svg" xmlns:xlink="http://www.w3.org/1999/xlink" x="0px" y="0px"
	 viewBox="0 0 3600 5600" style="enable-background:new 0 0 3600 5600;" xml:space="preserve">
<filter id="calleTurbulence">
    <feTurbulence
      type="turbulence"
      baseFrequency="0.05"
      numOctaves="2"
      result="turbulence" />
    <feDisplacementMap
      in2="turbulence"
      in="SourceGraphic"
      scale="50"
      xChannelSelector="R"
      yChannelSelector="G" />
</filter>
<filter id="estacionamientoTurbulence">
    <feTurbulence
      type="turbulence"
      baseFrequency="0.05"
      numOctaves="2"
      result="turbulence" />
    <feDisplacementMap
      in2="turbulence"
      in="SourceGraphic"
      scale="8"
      xChannelSelector="R"
      yChannelSelector="G" />
</filter>
<style type="text/css">

	.azoPiso{fill-rule:evenodd;clip-rule:evenodd;fill:#ccc;}
	.azoPredesLine{fill:none;stroke:#000000;stroke-width:1;}
	.azoAscen{fill-rule:evenodd;clip-rule:evenodd;fill:#242424;}
	.azoPiscina{fill-rule:evenodd;clip-rule:evenodd;fill:#00ADEE;filter: url(#calleTurbulence);}
	.azoTecho{fill-rule:evenodd;clip-rule:evenodd;fill:#a6a6a6;}
	.azoParedes{fill-rule:evenodd;clip-rule:evenodd;fill:#1f3973;}
	.azoAscLine{fill:none;stroke:#FFF;stroke-width:1;}

	.calle{filter: url(#calleTurbulence);}.asfalto{fill:#242424;}.asfaltoLine{fill:none;stroke:#B1B1B1;stroke-width:13;stroke-linecap:round;stroke-linejoin:round;}.jejuiTxt{font-family: "Exo", sans-serif;font-weight: bolder;font-size:250px;fill: #9A843E;}.estacAscensor{fill:#242424;}.estacAscensorLine{fill:none;stroke:#FFF;stroke-width:1;}.bloEstacionamiento{fill:#1f3973 ;}.bloEstacionamientoLine{fill:none;stroke:#FFF;stroke-width:1;}.recuadroBotonera{fill:none;stroke:black;stroke-width:1;}.fndBotonesIni{fill:#1f3973;}

	.btnTxt{font-family: "Exo", sans-serif;font-weight: bolder;font-size:75px;fill:gainsboro;}
	.btnTitle{font-family: "Exo", sans-serif;font-weight: bolder;font-size:85px;fill:#242424;}

	.reset,.monoAmbiente,.unDormitorio,.dosDormitorios,.pisosMono,.pisosUn,.pisosDos{cursor: pointer;transition: 0.3s;}
	.reset:hover,.monoAmbiente:hover,.unDormitorio:hover,.dosDormitorios:hover,.pisosMono:hover,.pisosUn:hover,.pisosDos:hover{opacity: 0.7;}
	.fndBotones{fill:#1f3973;}
	.btnsPisos{font-family: "Exo", sans-serif;font-weight: bolder;font-size:62px;fill: gainsboro;}
	
	.btnDisable{opacity: 0.5;pointer-events: none; transition: 0.3s;}

	.moverBntsUnDos{animation:  moverBntsUnDos 1s forwards;}
	.volverBntsUnDos{animation:  volverBntsUnDos 1s forwards;}
	@keyframes moverBntsUnDos{0%{transform: translateY(0px);}100%{transform: translateY(1360px);}}
	@keyframes volverBntsUnDos{0%{transform: translateY(1360px);}100%{transform: translateY(0px);}}

	.btnsMono,.btnsUn,.btnsDos{opacity: 0;pointer-events: none;}
	.displayBlock{ animation: displayBlock 0.5s forwards 0.5s;}
	@keyframes displayBlock{0%{opacity: 0;pointer-events: none;}100%{opacity: 1;pointer-events: all;}}

	/* Pisos */
	.p4201,.p4202,.p4203,.p4204,.p4205,.p4206,.p4207,.p4208,.p5301,.p5302,.p5303,.p5304,.p5305,.p5306,.p5307,.p5308,.p131001,.p131002,.p131003,.p131004{fill:#cccccc;}
	.p4Ascensor,.asceBFnd,.asceCFnd{fill:#242424;}
	.p4AsceLineas,.asceBLine,.asceCLine{fill:none;stroke:#FFF;stroke-width:1;}
	.p4Paredes,.bloqueBPared,.bloqueCPared{fill:#B3B3B3;}
	.p4Lineas,.bloqueBLine,.bloqueCLine{fill:none;stroke:#000;stroke-width:1;}
	.bloqueCLineD{fill:none;stroke:#000;stroke-width:5;}
	/*  */
	.bloqueBs,.bloqueCs,.p4S{opacity: 0.3;}
	.bloqueB,.bloqueC,.p4{}
	.moverBloques{animation: moverBloques 1s forwards;}
	.volverBloques{animation: volverBloques 1s forwards;}
	@keyframes moverBloques {0%{transform: translateX(0px);}100%{transform: translateX(-1280px);}}
	@keyframes volverBloques {0%{transform: translateX(-1280px);}100%{transform: translateX(0px);}}
	/*  */
	.mono,.un,.dos{fill: #cccccc;transition: all 0.3s;}
	.active{fill: #1f3973;transition: all 0.3s;}

	/* Habitaciones */
	.habtTxt{font-family: "Exo", sans-serif;font-weight: bolder;font-size:50px;fill:gainsboro;}
	.habtAsce{fill:#B3B3B3;}

	
	.habtFnd901,.habtFnd902,.habtFnd903,.habtFnd904{fill:#1f3973;stroke: #000000;stroke-width: 3;}
	.habtCalle{fill:#000000;}
	.hBtns{cursor: pointer;}
	.hBtns:hover{opacity: 0.7;}

	.hsC{pointer-events: none;opacity: 0;transform: translateY(450px);}
	.pActive{animation: pActive 0.5s forwards;}
	@keyframes pActive{0%{pointer-events: none;opacity: 0;transform: translateY(450px);}100%{pointer-events: all;opacity: 1;transform: translateY(0px);}}

</style>
<!-- <rect x="0" class="st0" width="3600" height="5600" style="fill:#333333;"/> -->

<g class="calle">
	<polygon class="asfalto" points="1733,5600 0,2548.9 0,3774.3 1037,5600"/>
	<path class="asfaltoLine" d="M747.9,4478.4l-110.8-195.1 M481.8,4009.8L371,3814.7 M200.7,3514.9L89.9,3319.8 M1385,5600l-110.8-195.1"/>
</g>
<text class="jejuiTxt" transform="matrix(0.4922 0.8705 -0.8705 0.4922 790.5002 4732.189)">JEJUÍ</text>
<g class="estacionamiento">
	<polygon class="estacAscensor" points="1807.3,4155.7 2018.8,4540.2 2012,4975.8 2120.8,4911.9 2157.3,4976.1 2157.3,4060.2 2120.8,3996.1 "/>
	<path class="bloEstacionamiento" d="M2577.7,4202.3l25.3,674L2227.7,5100l-70.4-123.9v-907l-36.5-73l-98.7,50.2l-96.9-171.9l372.5-220.8 L2577.7,4202.3z M2022.3,4531.4v689.1l-375.1,224.2l-302.7-537v-689.1l372.5-220.8L2022.3,4531.4z"/>
	<path class="estacAscensorLine" d="M2120.8,4911.9v-915.9 M2157.3,4749.4l-36.5-64.2l-97.8,58.3 M2157.3,4522.6l-36.5-64.2l-110.9,65.7 M2157.3,4295.8l-36.5-64.2l-206.2,116.7"/>
	<path class="bloEstacionamientoLine" d="M2577.7,4202.3l25.3,674L2227.7,5100l-70.4-123.9v-907l-36.5-73l-98.7,50.2l-96.9-171.9l372.5-220.8 L2577.7,4202.3z M2022.3,4531.4v689.1l-375.1,224.2l-302.7-537v-689.1l372.5-220.8L2022.3,4531.4z"/>
	<path class="bloEstacionamientoLine" d="M2227.9,4411.4l350-202.9 M1647.2,4755.6l371.6-215.4 M1647.2,5444.7v-689.1l-302.7-537 M2227.7,5100 l0.3-688.6l-70.6-125.3"/>
</g>
<text class="btnTitle" transform="matrix(1 0 0 1 2556.5369 224.1406)">ELIGE UNA TIPOLOGÍA</text>
<path class="recuadroBotonera" d="M3449,310h-893.5c-11.8,0-21.5,9.7-21.5,21.5v2298.3c0,11.8,9.7,21.5,21.5,21.5H3449c11.8,0,21.5-9.7,21.5-21.5 V331.5C3470.5,319.7,3460.8,310,3449,310z"/>
<!-- Botones Bloques -->
<g class="btnsMono">
	<text class="btnTitle" transform="matrix(1 0 0 1 2714.9316 768.381)">ELIGE UN PISO</text>
	<g class="pisosMono p100">
		<path class="fndBotones" d="M3305.3,860.4h-606.1c-9.6,0-17.4,7.8-17.4,17.4V1014c0,9.6,7.8,17.4,17.4,17.4h606.1 c9.6,0,17.4-7.8,17.4-17.4V877.8C3322.7,868.2,3314.9,860.4,3305.3,860.4"/>
		<text class="btnsPisos" transform="matrix(1 0 0 1 2741.7676 966.2404)">4 (incl. TERRAZA)</text>
	</g>
	<g class="pisosMono p200">
		<path class="fndBotones" d="M2920.7,1094.4h-221.5c-9.6,0-17.4,7.8-17.4,17.4V1248c0,9.6,7.8,17.4,17.4,17.4h221.5 c9.6,0,17.4-7.8,17.4-17.4v-136.2C2938.1,1102.2,2930.3,1094.4,2920.7,1094.4"/>
		<text class="btnsPisos" transform="matrix(1 0 0 1 2791.123 1202.9337)">5</text>
	</g>
	<g class="pisosMono p300">
		<path class="fndBotones" d="M3305.3,1094.4h-221.5c-9.6,0-17.4,7.8-17.4,17.4V1248c0,9.6,7.8,17.4,17.4,17.4h221.5 c9.6,0,17.4-7.8,17.4-17.4v-136.2C3322.7,1102.2,3314.9,1094.4,3305.3,1094.4"/>
		<text class="btnsPisos" transform="matrix(1 0 0 1 3175.752 1203.1212)">6</text>
	</g>
	<g class="pisosMono p400">
		<path class="fndBotones" d="M2920.7,1328h-221.5c-9.6,0-17.4,7.8-17.4,17.4v136.2c0,9.6,7.8,17.4,17.4,17.4h221.5 c9.6,0,17.4-7.8,17.4-17.4v-136.2C2938.1,1335.8,2930.3,1328,2920.7,1328"/>
		<text class="btnsPisos" transform="matrix(1 0 0 1 2792.4082 1436.7443)">7</text>
	</g>
	<g class="pisosMono p500">
		<path class="fndBotones" d="M3305.3,1328h-221.5c-9.6,0-17.4,7.8-17.4,17.4v136.2c0,9.6,7.8,17.4,17.4,17.4h221.5 c9.6,0,17.4-7.8,17.4-17.4v-136.2C3322.7,1335.8,3314.9,1328,3305.3,1328"/>
		<text class="btnsPisos" transform="matrix(1 0 0 1 3175.252 1436.7443)">8</text>
	</g>
	<g class="pisosMono p600">
		<path class="fndBotones" d="M2920.7,1561.6h-221.5c-9.6,0-17.4,7.8-17.4,17.4v136.2c0,9.6,7.8,17.4,17.4,17.4h221.5 c9.6,0,17.4-7.8,17.4-17.4V1579C2938.1,1569.5,2930.3,1561.6,2920.7,1561.6"/>
		<text class="btnsPisos" transform="matrix(1 0 0 1 2791.3457 1670.3693)">9</text>
	</g>
	<g class="pisosMono p700">
		<path class="fndBotones" d="M3305.3,1561.6h-221.5c-9.6,0-17.4,7.8-17.4,17.4v136.2c0,9.6,7.8,17.4,17.4,17.4h221.5 c9.6,0,17.4-7.8,17.4-17.4V1579C3322.7,1569.5,3314.9,1561.6,3305.3,1561.6"/>
		<text class="btnsPisos" transform="matrix(1 0 0 1 3163.252 1670.3693)">10</text>
	</g>
	<g class="pisosMono p800">
		<path class="fndBotones" d="M2920.7,1795.3h-221.5c-9.6,0-17.4,7.8-17.4,17.4v136.2c0,9.6,7.8,17.4,17.4,17.4h221.5 c9.6,0,17.4-7.8,17.4-17.4v-136.2C2938.1,1803.1,2930.3,1795.3,2920.7,1795.3"/>
		<text class="btnsPisos" transform="matrix(1 0 0 1 2786.998 1904.1779)">11</text>
	</g>
</g>
<g class="btnsUn">
	<text class="btnTitle" transform="matrix(1 0 0 1 2713.9316 1025.4708)">ELIGE UN PISO</text>
	<g class="pisosUn p100">
		<path class="fndBotones" d="M3304.3,1117.5h-606.1c-9.6,0-17.4,7.8-17.4,17.4v136.2c0,9.6,7.8,17.4,17.4,17.4h606.1 c9.6,0,17.4-7.8,17.4-17.4v-136.2C3321.7,1125.3,3313.9,1117.5,3304.3,1117.5"/>
		<text class="btnsPisos" transform="matrix(1 0 0 1 2740.7676 1223.3282)">4 (incl. TERRAZA)</text>
	</g>
	<g class="pisosUn p200">
		<path class="fndBotones" d="M2919.7,1351.5h-221.5c-9.6,0-17.4,7.8-17.4,17.4v136.2c0,9.6,7.8,17.4,17.4,17.4h221.5 c9.6,0,17.4-7.8,17.4-17.4v-136.2C2937.1,1359.3,2929.3,1351.5,2919.7,1351.5"/>
		<text class="btnsPisos" transform="matrix(1 0 0 1 2790.123 1460.0255)">5</text>
	</g>
	<g class="pisosUn p300">
		<path class="fndBotones" d="M3304.3,1351.5h-221.5c-9.6,0-17.4,7.8-17.4,17.4v136.2c0,9.6,7.8,17.4,17.4,17.4h221.5 c9.6,0,17.4-7.8,17.4-17.4v-136.2C3321.7,1359.3,3313.9,1351.5,3304.3,1351.5"/>
		<text class="btnsPisos" transform="matrix(1 0 0 1 3174.752 1460.213)">6</text>
	</g>
	<g class="pisosUn p400">
		<path class="fndBotones" d="M2919.7,1585.1h-221.5c-9.6,0-17.4,7.8-17.4,17.4v136.2c0,9.6,7.8,17.4,17.4,17.4h221.5 c9.6,0,17.4-7.8,17.4-17.4v-136.2C2937.1,1592.9,2929.3,1585.1,2919.7,1585.1"/>
		<text class="btnsPisos" transform="matrix(1 0 0 1 2791.4082 1693.8341)">7</text>
	</g>
	<g class="pisosUn p500">
		<path class="fndBotones" d="M3304.3,1585.1h-221.5c-9.6,0-17.4,7.8-17.4,17.4v136.2c0,9.6,7.8,17.4,17.4,17.4h221.5 c9.6,0,17.4-7.8,17.4-17.4v-136.2C3321.7,1592.9,3313.9,1585.1,3304.3,1585.1"/>
		<text class="btnsPisos" transform="matrix(1 0 0 1 3174.252 1693.8341)">8</text>
	</g>
	<g class="pisosUn p600">
		<path class="fndBotones" d="M2919.7,1818.7h-221.5c-9.6,0-17.4,7.8-17.4,17.4v136.2c0,9.6,7.8,17.4,17.4,17.4h221.5 c9.6,0,17.4-7.8,17.4-17.4v-136.2C2937.1,1826.5,2929.3,1818.7,2919.7,1818.7"/>
		<text class="btnsPisos" transform="matrix(1 0 0 1 2790.3457 1927.4591)">9</text>
	</g>
	<g class="pisosUn p700">
		<path class="fndBotones" d="M3304.3,1818.7h-221.5c-9.6,0-17.4,7.8-17.4,17.4v136.2c0,9.6,7.8,17.4,17.4,17.4h221.5 c9.6,0,17.4-7.8,17.4-17.4v-136.2C3321.7,1826.5,3313.9,1818.7,3304.3,1818.7"/>
		<text class="btnsPisos" transform="matrix(1 0 0 1 3162.252 1927.4591)">10</text>
	</g>
	<g class="pisosUn p800">
		<path class="fndBotones" d="M2919.7,2052.3h-221.5c-9.6,0-17.4,7.8-17.4,17.4V2206c0,9.6,7.8,17.4,17.4,17.4h221.5 c9.6,0,17.4-7.8,17.4-17.4v-136.2C2937.1,2060.2,2929.3,2052.3,2919.7,2052.3"/>
		<text class="btnsPisos" transform="matrix(1 0 0 1 2785.998 2161.2676)">11</text>
	</g>
</g>
<g class="btnsDos">
	<text class="btnTitle" transform="matrix(1 0 0 1 2713.9316 1334.7267)">ELIGE UN PISO</text>
	<g class="pisosDos p900">
		<path class="fndBotones" d="M2919.7,1426.8h-221.5c-9.6,0-17.4,7.8-17.4,17.4v136.2c0,9.6,7.8,17.4,17.4,17.4h221.5 c9.6,0,17.4-7.8,17.4-17.4v-136.2C2937.1,1434.6,2929.3,1426.8,2919.7,1426.8"/>
		<text class="btnsPisos" transform="matrix(1 0 0 1 2779.4395 1535.5333)">13</text>
	</g>
	<g class="pisosDos  p1000">
		<path class="fndBotones" d="M3304.3,1426.8h-221.5c-9.6,0-17.4,7.8-17.4,17.4v136.2c0,9.6,7.8,17.4,17.4,17.4h221.5 c9.6,0,17.4-7.8,17.4-17.4v-136.2C3321.7,1434.6,3313.9,1426.8,3304.3,1426.8"/>
		<text class="btnsPisos" transform="matrix(1 0 0 1 3161.7246 1535.6779)">14</text>
	</g>
	<g class="pisosDos  p1100">
		<path class="fndBotones" d="M2919.7,1660.4h-221.5c-9.6,0-17.4,7.8-17.4,17.4V1814c0,9.6,7.8,17.4,17.4,17.4h221.5 c9.6,0,17.4-7.8,17.4-17.4v-136.2C2937.1,1668.2,2929.3,1660.4,2919.7,1660.4"/>
		<text class="btnsPisos" transform="matrix(1 0 0 1 2778.9395 1769.1154)">15</text>
	</g>
	<g class="pisosDos  p1200">
		<path class="fndBotones" d="M3304.3,1660.4h-221.5c-9.6,0-17.4,7.8-17.4,17.4V1814c0,9.6,7.8,17.4,17.4,17.4h221.5 c9.6,0,17.4-7.8,17.4-17.4v-136.2C3321.7,1668.2,3313.9,1660.4,3304.3,1660.4"/>
		<text class="btnsPisos" transform="matrix(1 0 0 1 3163.3809 1769.1154)">16</text>
	</g>
	<g class="pisosDos  p1300">
		<path class="fndBotones" d="M2919.7,1894h-221.5c-9.6,0-17.4,7.8-17.4,17.4v136.2c0,9.6,7.8,17.4,17.4,17.4h221.5 c9.6,0,17.4-7.8,17.4-17.4v-136.2C2937.1,1901.8,2929.3,1894,2919.7,1894"/>
		<text class="btnsPisos" transform="matrix(1 0 0 1 2779.4082 2002.7365)">17</text>
	</g>
	<g class="pisosDos  p1400">
		<path class="fndBotones" d="M3304.3,1894h-221.5c-9.6,0-17.4,7.8-17.4,17.4v136.2c0,9.6,7.8,17.4,17.4,17.4h221.5 c9.6,0,17.4-7.8,17.4-17.4v-136.2C3321.7,1901.8,3313.9,1894,3304.3,1894"/>
		<text class="btnsPisos" transform="matrix(1 0 0 1 3163.0332 2002.7365)">18</text>
	</g>
</g>
<!-- Tipografias Btns -->
<g class="botoneraIni">
	<g class="reset">
		<path class="fndBotonesIni" d="M3334.4,2752.4H2919c-10.5,0-19.1,8.6-19.1,19v149.2c0,10.5,8.6,19,19.1,19h415.4c10.5,0,19.1-8.6,19.1-19 v-149.2C3353.5,2761,3344.9,2752.4,3334.4,2752.4"/>
		<text class="btnTxt" transform="matrix(1 0 0 1 3011.0684 2873.9102)">RESET</text>
	</g>
	<g class="monoAmbiente">
		<path class="fndBotonesIni" d="M3334.4,425.6h-664.3c-10.5,0-19,8.6-19,19v149.2c0,10.5,8.6,19,19,19h664.3c10.5,0,19-8.6,19-19V444.7 C3353.5,434.2,3344.9,425.6,3334.4,425.6"/>
		<text class="btnTxt" transform="matrix(1 0 0 1 2698.8926 547.1602)">MONOAMBIENTE</text>
	</g>
	<g class="unDormitorio">
		<path class="fndBotonesIni" d="M3334.4,700h-664.3c-10.5,0-19,8.6-19,19v149.2c0,10.5,8.6,19,19,19h664.3c10.5,0,19-8.6,19-19V719 C3353.5,708.6,3344.9,700,3334.4,700"/>
		<text class="btnTxt" transform="matrix(1 0 0 1 2746.3301 821.5547)">1 DORMITORIO</text>
	</g>
	<g class="dosDormitorios">
		<path class="fndBotonesIni" d="M3334.4,961.6h-664.3c-10.5,0-19,8.6-19,19v149.2c0,10.5,8.6,19,19,19h664.3c10.5,0,19-8.6,19-19V980.6 C3353.5,970.1,3344.9,961.6,3334.4,961.6"/>
		<text class="btnTxt" transform="matrix(1 0 0 1 2738.0449 1083.1309)">2 DORMITORIO</text>
	</g>
</g>
<!-- Piso 4to -->
<g class="p4S">
	<path class="mono" d="M2505.4,4077.6l-47.7,28v77l79-49.9L2505.4,4077.6z M2385.4,3966.8l31.4,55.3l18.1-10.7l22.8,40.1l-231,135.6 l-70.4-123.9l42.2-24.8l16.2,28.4L2385.4,3966.8z"/>
	<path class="mono" d="M2247.4,3761l55.8-32.5l-26.9-46.2l-56.6,30L2247.4,3761z M2168.3,3584.6l-31.4-55.3l18.1-10.6l-22.8-40.1 l-231,135.6l70.4,123.9l42.2-24.8l-16.2-28.4L2168.3,3584.6z"/>
	<path class="mono" d="M1487.5,4137.1l-22.8-40.1l-100.8,59.5l42.1,74.2l112.9-64.1v-16.8l-13.3-23.3L1487.5,4137.1z M1537.1,3955 l-31.4-55.3l-18.1,10.6l-22.8-40.1l231-135.6l70.4,123.9l-42.2,24.8l-16.2-28.4L1537.1,3955z"/>
	<path class="mono" d="M1736,4574.6l-99.9,53.7l10,17l118.4-62.8l-10.7-18.3L1736,4574.6z M1754.2,4337.2l31.4,55.3l-18.1,10.6 l22.8,40.1l231-135.6l-70.4-123.9l-42.2,24.8l16.2,28.4L1754.2,4337.2z"/>
	
	<polygon class="p4202" points="2295,3765 2308.5,3789 2274.6,3808.9 2316.9,3883.5 2350.9,3863.5 2403.5,3956.1 2403.5,3998.7 2416.8,4022.1 2434.9,4011.4 2457.7,4051.6 2457.7,4105.5 2505.4,4077.6 2457.7,3993.6 2409.7,3911.4 2385.6,3924.7 2403.5,3956.1 2403.5,3956.1 2214.7,4067 2106.1,3875.8 "/>
	<polygon class="p4203" points="2281.4,3741.1 2247.4,3761 2205,3686.5 2239,3666.5 2186.4,3573.9 1997.6,3684.7 2106.1,3875.8 2294.9,3765 2308.5,3789 2308.5,3868.7 2316.9,3883.5 2350.9,3863.5 2374.1,3904.4 2397.4,3890.1 2305.6,3727.1 "/>
	<path class="p4206" d="M1518.9,4166.6l-112.9,64.1l58.7,103.3l38.4,67.6l0,0.1l110.7-65v-56.9l-8.3-14.7l-34,19.9l-52.6-92.6V4166.6z M1627.5,4156.8l-13.6-23.9l34-20l-42.3-74.5l-34,19.9l-52.6-92.6l188.8-110.8l108.5,191.1L1627.5,4156.8z"/>
	<path class="p4207" d="M1624.4,4378.2l-100.8,59.5l112.5,190.6l99.9-53.7l-52.6-92.6l0-79.8l-8.6-14.6l-33.8,19.8L1624.4,4378.2z M1627.5,4156.8l13.6,23.9l34-20l42.3,74.5l-34,19.9l52.6,92.6l188.8-110.8l-108.5-191.1L1627.5,4156.8z"/>
	
	<polygon class="p4Ascensor" points="1971.4,3737.7 2008.1,3802.4 1802.7,3922.9 1766.1,3858.5 1723.9,3883.3 1908.7,4208.6 1950.9,4183.8 2011,4289.7 2119.8,4225.9 2156.3,4290 2156.3,4063.3 2198.5,4038.5 2013.7,3713.2 "/>
	<path class="p4AsceLineas" d="M2156.3,4063.3l-36.5-64.2v226.8l36.5,64.2 M1950.9,4183.8l-36.5-64.2l205.4-120.5 M2011,4289.7l108.8-63.9"/>
	<path class="p4Paredes" d="M1901.2,3840.8v-226.8l106.9,188.3l-96.6,56.7L1901.2,3840.8z M2308.5,3789v79.8l-34-59.8 C2285.9,3802.3,2297.2,3795.6,2308.5,3789z M2403.5,3956.1v42.6l-18.1-32L2403.5,3956.1z M2536.7,4132.7l-79-139l-48-82.3 l-24.1,13.4l-11.5-20.3l23.2-14.3l-121.1-207.8l-59.2,31.4l-12-27.2l34-19.9l-30.5-53.8l67.8-39.8l302.7,533v101.2l-121.3,71.2 l-231,135.6l-70.4-123.9v-226.7l70.4,123.9l231-135.6v131L2536.7,4132.7z M1646.2,4758.7l-181.4-323.5l-121.3-213.5l0-101.2 l121.3-71.2v-179.1l22.8,40.1l18.1-10.6l31.4,55.3l-18.1,10.6l52.6,92.6l34.3-19.5l42,74l-34,20l27.2,47.9l34.3-19.5l42.1,74.1 l-34,19.9l52.6,92.6l18.3-10.4l31.3,55l-18.1,10.6l22.8,40.2l231.1-135.6v226.7L1646.2,4758.7z M1624.4,4378.2l-100.8,59.5 l122.5,207.6l118.7-62.3l-11-18.8l-17.8,10.5l-52.6-92.6l0-79.8l-8.6-14.6l-33.8,19.8L1624.4,4378.2z M1364,4156.5l100.8,177.4 l39,68.7l110.1-65.9v-57l-8.3-14.7l-34,19.9l-52.6-92.6v-42.6l-13.3-23.3l-18.1,10.6l-22.8-40.1L1364,4156.5z M2155,3561.2 l-18.1-31.9l18.1-10.6V3561.2z"/>
	<path class="p4Lineas" d="M1911.5,3859l96.6-56.7l-36.6-64.4l42.6-24.2l184.4,324.7l-42.2,24.8V4290l70.4,123.9l1.2-0.7l351.1-206.1 v-101.2l-302.7-533l-70.4,35.2l-19.5-34.3l-18.1,10.7l-13.3-23.3v-42.6l-22.8-40.1l-231,135.6v226.8L1911.5,3859z M1789.1,4667.6 l1.1-224.3 M1764.6,4582.5l2.9-179.3 M1753.8,4564.2l0-226.7 M1736,4574.6l0-226.7 M1683.4,4482l0-226.7 M1674.9,4387.6l0-226.7 M1641.1,4407.5l0-226.7 M1505.5,4400.3l108.4-63.5l0-204 M1605.5,4265.1l0-226.7 M1571.5,4285l0-226.7 M1518.9,4149.8l0-184.1 M1505.7,4126.5l0-226.7 M1487.5,4137.1l0-226.7 M1646.2,4758.7l1.1-113.7l-303.8-524.6 M1518.9,4166.6l-112.9,64.1 M1646.2,4758.7 l375.1-224.2v-226.7l-231,135.6l-22.8-40.1l18.1-10.6l-31.3-55l170.5-100.4l-16.2-28.4l42.2-24.8l70.4,123.9 M1754.3,4337.5 l-18.3,10.4l-52.6-92.6l34-20l-42.1-74.1l-34.3,19.5l-13.6-23.9l188.8-110.8l92.4,162.7 M1627.5,4156.8l-13.6-23.9l34-20l-42.3-74.5 l-34,20l-52.6-92.6l188.8-110.8l108.5,191.1 M1537.1,3955l-31.4-55.3l-18.1,10.6l-22.8-40.1l231-135.6l70.4,123.9l-42.2,24.8 M1647.2,4645l117.6-62 M1753.8,4564.2l-116.6,63.5 M1674.9,4387.6l-33.8,19.8l-16.6-29.3l-98.1,58 M1613.9,4279.8l-8.3-14.7 l-34,19.9l-52.6-92.6v-42.6l-13.3-23.3l-18.1,10.6l-22.8-40.1l-100.5,59.4 M1736,4573.9l-52.6-91.9 M2205.9,3608.2l33.1,58.4 l-34,19.9l14.7,25.8l58.2-27.2l119.5,205l-23.2,14.3l11.5,20.3l24.1-13.3l126.9,221.3l-79,49.9v-131l-231,135.6l-70.4-123.9 M1901.2,3614.1l72.1,122.9 M2155,3518.6l-18.1,10.6l17.4,30.7 M2014.1,3713.8l-16.5-29.1l170.7-100.2 M2219.7,3712.3l27.7,48.7 l55.6-32.4 M2106.1,3875.8l188.8-110.8l13.6,23.9l-34,19.9l42.3,74.5l34.3-19.5l22.1,39 M2308.5,3868.8l0-79.8 M2198.5,4038.5 l16.2,28.4l170.7-100.2l31.4,55.3l18.1-10.7l22.8,40.1 M2385.4,3966.8l18.1-10.6v42.6 M2505.1,4077.7l-47.4,27.8 M2226.7,4413.9 l0-226.7 M1766.1,3858.5l36.6,64.4l108.8-63.8 M1646.2,4758.7l-302.7-537l0-101.2l121.3-71.2l0-179.1"/>
</g>
<defs>
	<g id="bloqB">
		<polygon class="mono" points="2385.4,3738 2416.8,3793.3 2434.9,3782.6 2457.7,3822.8 2226.7,3958.4 2156.3,3834.5 2198.5,3809.7 2214.7,3838.2"/>
		<polygon class="mono" points="2168.3,3355.8 2136.9,3300.5 2155,3289.8 2132.2,3249.7 1901.2,3385.3 1971.5,3509.2 2013.7,3484.4 1997.6,3455.9"/>
		<polygon class="mono" points="1537.1,3726.2 1505.7,3670.9 1487.5,3681.6 1464.7,3641.4 1695.8,3505.8 1766.1,3629.7 1723.9,3654.5 1707.8,3626"/>
		<polygon class="mono" points="1754.2,4108.4 1785.6,4163.7 1767.4,4174.4 1790.2,4214.5 2021.3,4078.9 1950.9,3955 1908.7,3979.8 1924.9,4008.3"/>

		<polygon class="un" points="2295,3536.2 2308.5,3560.2 2274.6,3580.1 2316.9,3654.7 2350.9,3634.7 2403.5,3727.3 2214.7,3838.2 2106.1,3647.1"/>
		<polygon class="un" points="2295,3536.2 2281.4,3512.3 2247.4,3532.2 2205,3457.7 2239,3437.8 2186.4,3345.1 1997.6,3455.9 2106.1,3647.1"/>
		<polygon class="un" points="1627.5,3928 1613.9,3904 1647.9,3884.1 1605.5,3809.5 1571.5,3829.5 1518.9,3736.8 1707.8,3626 1816.3,3817.1"/>
		<polygon class="un" points="1627.5,3928 1641.1,3951.9 1675.1,3932 1717.4,4006.5 1683.4,4026.4 1736,4119.1 1924.9,4008.3 1816.3,3817.1"/>

		<polygon class="asceBFnd" points="1971.4,3508.9 2008.1,3573.6 1802.7,3694.1 1766.1,3629.7 1723.9,3654.5 1908.7,3979.8 1950.9,3955 2011,4060.9 2119.8,3997.1 2156.3,4061.2 2156.3,3834.5 2198.5,3809.7 2013.7,3484.4"/>
		<path class="asceBLine" d="M2156.3,3834.5l-36.5-64.2v226.8l36.5,64.2 M1950.9,3955l-36.5-64.2l205.4-120.5 M2011,4060.9l108.8-63.9"/>
		<path class="bloqueBPared" d="M1901.2,3612v-226.8l106.9,188.3l-96.6,56.7L1901.2,3612z M2239,3437.8v79.8l-34-59.8L2239,3437.8z M2308.5,3560.2v79.8l-34-59.8C2285.9,3573.5,2297.2,3566.8,2308.5,3560.2z M2403.5,3727.3v42.6l-18.1-32L2403.5,3727.3z M2457.7,3822.8v226.8l-231,135.6l-70.4-123.9v-226.7l70.4,123.9L2457.7,3822.8z M2021.3,4078.9v226.7l-231.1,135.6l-22.8-40.2 v-42.6l-13.6-23.1l-17.8,10.5l-52.6-92.6l0-79.8l-8.6-14.6l-33.8,19.8l-27.2-47.9V4051l-8.3-14.7l-34,19.9l-52.6-92.6V3921 l-13.3-23.3l-18.1,10.6l-22.8-40.1v-226.8l22.8,40.1l18.1-10.6l31.4,55.3l-18.1,10.6l52.6,92.6l34.3-19.5l42,74l-34,19.9l27.2,47.9 l34.3-19.5l42.1,74.1l-34,19.9l52.6,92.6l18.3-10.4l31.3,55l-18.1,10.6l22.8,40.2L2021.3,4078.9z M2155,3332.4l-18.1-31.9l18.1-10.6 V3332.4z"/>
		<path class="bloqueBLine" d="M1901.2,3612v-226.8l106.9,188.3l-96.6,56.7L1901.2,3612z M2239,3437.8v79.8l-34-59.8L2239,3437.8z M2308.5,3560.2v79.8l-34-59.8C2285.9,3573.5,2297.2,3566.8,2308.5,3560.2z M2403.5,3727.3v42.6l-18.1-32L2403.5,3727.3z M2457.7,3822.8v226.8l-231,135.6l-70.4-123.9v-226.7l70.4,123.9L2457.7,3822.8z M2021.3,4078.9v226.7l-231.1,135.6l-22.8-40.2 v-42.6l-13.6-23.1l-17.8,10.5l-52.6-92.6l0-79.8l-8.6-14.6l-33.8,19.8l-27.2-47.9V4051l-8.3-14.7l-34,19.9l-52.6-92.6V3921 l-13.3-23.3l-18.1,10.6l-22.8-40.1v-226.8l22.8,40.1l18.1-10.6l31.4,55.3l-18.1,10.6l52.6,92.6l34.3-19.5l42,74l-34,19.9l27.2,47.9 l34.3-19.5l42.1,74.1l-34,19.9l52.6,92.6l18.3-10.4l31.3,55l-18.1,10.6l22.8,40.2L2021.3,4078.9z M2155,3332.4l-18.1-31.9 l18.1-10.6V3332.4z"/>
		<path class="bloqueBLine" d="M1790.2,4441.3l0-226.7 M1767.4,4358.5v-184.2 M1753.8,4335.4l0-226.7 M1736,4345.8l0-226.7 M1683.4,4253.2 l0-226.7 M1674.9,4158.8l0-226.7 M1641.1,4178.7l0-226.7 M1613.9,4051l0-147 M1605.5,4036.3l0-226.7 M1571.5,4056.2l0-226.7 M1518.9,3921l0-184.1 M1505.7,3897.7l0-226.7 M1487.5,3908.3l0-226.7 M2226.7,4185.1l0-226.7"/>
	</g>
</defs>
<defs>
	<g id="bloqC">
		<polygon class="dos" points="2385.4,1932.7 2416.8,1988 2434.9,1977.4 2457.7,2017.5 2226.7,2153.1 2156.3,2029.2 2198.5,2004.5 2106.1,1841.8 2295,1731 2308.5,1754.9 2274.6,1774.9 2316.9,1849.4 2350.9,1829.5 2403.5,1922.1"/>
		<polygon class="dos" points="2295,1731 2281.4,1707 2247.4,1727 2205,1652.5 2239,1632.5 2186.4,1539.9 2168.3,1550.5 2136.9,1495.2 2155,1484.6 2132.2,1444.4 1901.2,1580 1971.5,1703.9 2013.7,1679.1 2106.1,1841.8"/>
		<polygon class="dos" points="1537.1,1920.9 1505.7,1865.7 1487.5,1876.3 1464.7,1836.2 1695.8,1700.6 1766.1,1824.4 1723.9,1849.2 1816.3,2011.9 1627.5,2122.7 1613.9,2098.8 1647.9,2078.8 1605.5,2004.3 1571.5,2024.2 1518.9,1931.6"/>
		<polygon class="dos" points="1627.5,2122.7 1641.1,2146.7 1675.1,2126.7 1717.4,2201.2 1683.4,2221.2 1736,2313.8 1754.2,2303.2 1785.6,2358.5 1767.4,2369.1 1790.2,2409.3 2021.3,2273.7 1950.9,2149.8 1908.7,2174.6 1816.3,2011.9"/>
		
		<polygon class="asceCFnd" points="1971.4,1703.7 2008.1,1768.3 1802.7,1888.9 1766.1,1824.4 1723.9,1849.2 1908.7,2174.6 1950.9,2149.8 2011,2255.7 2119.8,2191.8 2156.3,2256 2156.3,2029.2 2198.5,2004.5 2013.7,1679.1"/>
		<path class="asceCLine" d="M2156.3,2029.2l-36.5-64.2v226.8l36.5,64.2 M1950.9,2149.8l-36.5-64.2l205.4-120.5 M2011,2255.7l108.8-63.9"/>
		<path class="bloqueCPared" d="M1901.2,1806.8V1580l106.9,188.3l-96.6,56.7L1901.2,1806.8z M2239,1632.5v79.8l-34-59.8L2239,1632.5z M2308.5,1754.9v79.8l-34-59.8C2285.9,1768.2,2297.2,1761.6,2308.5,1754.9z M2403.5,1922.1v42.6l-18.1-32L2403.5,1922.1z M2457.7,2017.5v226.8l-231,135.6l-70.4-123.9v-226.7l70.4,123.9L2457.7,2017.5z M2021.3,2273.7v226.7L1790.2,2636l-22.8-40.2v-42.6 l-13.6-23.1l-17.8,10.5l-52.6-92.6l0-79.8l-8.6-14.6l-33.8,19.8l-27.2-47.9v-79.8l-8.3-14.7l-34,19.9l-52.6-92.6v-42.6l-13.3-23.3 l-18.1,10.6l-22.8-40.1v-226.8l22.8,40.1l18.1-10.6l31.4,55.3l-18.1,10.6l52.6,92.6l34.3-19.5l42,74l-34,19.9l27.2,47.9l34.3-19.5 l42.1,74.1l-34,19.9l52.6,92.6l18.3-10.4l31.3,55l-18.1,10.6l22.8,40.2L2021.3,2273.7z M2155,1527.2l-18.1-31.9l18.1-10.6V1527.2z"/>
		<path class="bloqueCLine" d="M1901.2,1806.8V1580l106.9,188.3l-96.6,56.7L1901.2,1806.8z M2239,1632.5v79.8l-34-59.8L2239,1632.5z M2308.5,1754.9v79.8l-34-59.8C2285.9,1768.2,2297.2,1761.6,2308.5,1754.9z M2403.5,1922.1v42.6l-18.1-32L2403.5,1922.1z M2457.7,2017.5v226.8l-231,135.6l-70.4-123.9v-226.7l70.4,123.9L2457.7,2017.5z M2021.3,2273.7v226.7L1790.2,2636l-22.8-40.2 v-42.6l-13.6-23.1l-17.8,10.5l-52.6-92.6l0-79.8l-8.6-14.6l-33.8,19.8l-27.2-47.9v-79.8l-8.3-14.7l-34,19.9l-52.6-92.6v-42.6 l-13.3-23.3l-18.1,10.6l-22.8-40.1v-226.8l22.8,40.1l18.1-10.6l31.4,55.3l-18.1,10.6l52.6,92.6l34.3-19.5l42,74l-34,19.9l27.2,47.9 l34.3-19.5l42.1,74.1l-34,19.9l52.6,92.6l18.3-10.4l31.3,55l-18.1,10.6l22.8,40.2L2021.3,2273.7z M2155,1527.2l-18.1-31.9 l18.1-10.6V1527.2z"/>
		<path class="bloqueCLine" d="M1790.2,2636l0-226.7 M1767.4,2553.3v-184.2 M1753.8,2530.1l0-226.7 M1736,2540.6l0-226.7 M1683.4,2447.9 l0-226.7 M1674.9,2353.6l0-226.7 M1641.1,2373.4l0-226.7 M1613.9,2245.7l0-147 M1605.5,2231l0-226.7 M1571.5,2251l0-226.7 M1518.9,2115.7l0-184.1 M1505.7,2092.4l0-226.7 M1487.5,2103.1l0-226.7 M2226.7,2379.9l0-226.7"/>
		<line class="bloqueCLineD" x1="1627.5" y1="2122.7" x2="1816.3" y2="2011.9"/>
		<line class="bloqueCLineD" x1="2104.1" y1="1841.8" x2="2292.9" y2="1731"/>
	</g>
</defs>
<g class="bloqueBs">
	<use x="0" y="0" href="#bloqB"/>
	<use x="0" y="-229" href="#bloqB"/>
	<use x="0" y="-458" href="#bloqB"/>
	<use x="0" y="-687" href="#bloqB"/>
	<use x="0" y="-916" href="#bloqB"/>
	<use x="0" y="-1145" href="#bloqB"/>
	<use x="0" y="-1374" href="#bloqB"/>
	<use x="0" y="-1603" href="#bloqB"/>
</g>
<g class="bloqueB">
	<g class="pBb p100">
		<path class="mono" d="M2505.4,4077.6l-47.7,28v77l79-49.9L2505.4,4077.6z M2385.4,3966.8l31.4,55.3l18.1-10.7l22.8,40.1l-231,135.6 l-70.4-123.9l42.2-24.8l16.2,28.4L2385.4,3966.8z"/>
		<path class="mono" d="M2247.4,3761l55.8-32.5l-26.9-46.2l-56.6,30L2247.4,3761z M2168.3,3584.6l-31.4-55.3l18.1-10.6l-22.8-40.1 l-231,135.6l70.4,123.9l42.2-24.8l-16.2-28.4L2168.3,3584.6z"/>
		<path class="mono" d="M1487.5,4137.1l-22.8-40.1l-100.8,59.5l42.1,74.2l112.9-64.1v-16.8l-13.3-23.3L1487.5,4137.1z M1537.1,3955 l-31.4-55.3l-18.1,10.6l-22.8-40.1l231-135.6l70.4,123.9l-42.2,24.8l-16.2-28.4L1537.1,3955z"/>
		<path class="mono" d="M1736,4574.6l-99.9,53.7l10,17l118.4-62.8l-10.7-18.3L1736,4574.6z M1754.2,4337.2l31.4,55.3l-18.1,10.6 l22.8,40.1l231-135.6l-70.4-123.9l-42.2,24.8l16.2,28.4L1754.2,4337.2z"/>
		
		<polygon class="un" points="2295,3765 2308.5,3789 2274.6,3808.9 2316.9,3883.5 2350.9,3863.5 2403.5,3956.1 2403.5,3998.7 2416.8,4022.1 2434.9,4011.4 2457.7,4051.6 2457.7,4105.5 2505.4,4077.6 2457.7,3993.6 2409.7,3911.4 2385.6,3924.7 2403.5,3956.1 2403.5,3956.1 2214.7,4067 2106.1,3875.8 "/>
		<polygon class="un" points="2281.4,3741.1 2247.4,3761 2205,3686.5 2239,3666.5 2186.4,3573.9 1997.6,3684.7 2106.1,3875.8 2294.9,3765 2308.5,3789 2308.5,3868.7 2316.9,3883.5 2350.9,3863.5 2374.1,3904.4 2397.4,3890.1 2305.6,3727.1 "/>
		<path class="un" d="M1518.9,4166.6l-112.9,64.1l58.7,103.3l38.4,67.6l0,0.1l110.7-65v-56.9l-8.3-14.7l-34,19.9l-52.6-92.6V4166.6z M1627.5,4156.8l-13.6-23.9l34-20l-42.3-74.5l-34,19.9l-52.6-92.6l188.8-110.8l108.5,191.1L1627.5,4156.8z"/>
		<path class="un" d="M1624.4,4378.2l-100.8,59.5l112.5,190.6l99.9-53.7l-52.6-92.6l0-79.8l-8.6-14.6l-33.8,19.8L1624.4,4378.2z M1627.5,4156.8l13.6,23.9l34-20l42.3,74.5l-34,19.9l52.6,92.6l188.8-110.8l-108.5-191.1L1627.5,4156.8z"/>

		<polygon class="p4Ascensor" points="1971.4,3737.7 2008.1,3802.4 1802.7,3922.9 1766.1,3858.5 1723.9,3883.3 1908.7,4208.6 1950.9,4183.8 2011,4289.7 2119.8,4225.9 2156.3,4290 2156.3,4063.3 2198.5,4038.5 2013.7,3713.2 "/>
		<path class="p4AsceLineas" d="M2156.3,4063.3l-36.5-64.2v226.8l36.5,64.2 M1950.9,4183.8l-36.5-64.2l205.4-120.5 M2011,4289.7l108.8-63.9"/>
		<path class="p4Paredes" d="M1901.2,3840.8v-226.8l106.9,188.3l-96.6,56.7L1901.2,3840.8z M2308.5,3789v79.8l-34-59.8 C2285.9,3802.3,2297.2,3795.6,2308.5,3789z M2403.5,3956.1v42.6l-18.1-32L2403.5,3956.1z M2536.7,4132.7l-79-139l-48-82.3 l-24.1,13.4l-11.5-20.3l23.2-14.3l-121.1-207.8l-59.2,31.4l-12-27.2l34-19.9l-30.5-53.8l67.8-39.8l302.7,533v101.2l-121.3,71.2 l-231,135.6l-70.4-123.9v-226.7l70.4,123.9l231-135.6v131L2536.7,4132.7z M1646.2,4758.7l-181.4-323.5l-121.3-213.5l0-101.2 l121.3-71.2v-179.1l22.8,40.1l18.1-10.6l31.4,55.3l-18.1,10.6l52.6,92.6l34.3-19.5l42,74l-34,20l27.2,47.9l34.3-19.5l42.1,74.1 l-34,19.9l52.6,92.6l18.3-10.4l31.3,55l-18.1,10.6l22.8,40.2l231.1-135.6v226.7L1646.2,4758.7z M1624.4,4378.2l-100.8,59.5 l122.5,207.6l118.7-62.3l-11-18.8l-17.8,10.5l-52.6-92.6l0-79.8l-8.6-14.6l-33.8,19.8L1624.4,4378.2z M1364,4156.5l100.8,177.4 l39,68.7l110.1-65.9v-57l-8.3-14.7l-34,19.9l-52.6-92.6v-42.6l-13.3-23.3l-18.1,10.6l-22.8-40.1L1364,4156.5z M2155,3561.2 l-18.1-31.9l18.1-10.6V3561.2z"/>
		<path class="p4Lineas" d="M1911.5,3859l96.6-56.7l-36.6-64.4l42.6-24.2l184.4,324.7l-42.2,24.8V4290l70.4,123.9l1.2-0.7l351.1-206.1 v-101.2l-302.7-533l-70.4,35.2l-19.5-34.3l-18.1,10.7l-13.3-23.3v-42.6l-22.8-40.1l-231,135.6v226.8L1911.5,3859z M1789.1,4667.6 l1.1-224.3 M1764.6,4582.5l2.9-179.3 M1753.8,4564.2l0-226.7 M1736,4574.6l0-226.7 M1683.4,4482l0-226.7 M1674.9,4387.6l0-226.7 M1641.1,4407.5l0-226.7 M1505.5,4400.3l108.4-63.5l0-204 M1605.5,4265.1l0-226.7 M1571.5,4285l0-226.7 M1518.9,4149.8l0-184.1 M1505.7,4126.5l0-226.7 M1487.5,4137.1l0-226.7 M1646.2,4758.7l1.1-113.7l-303.8-524.6 M1518.9,4166.6l-112.9,64.1 M1646.2,4758.7 l375.1-224.2v-226.7l-231,135.6l-22.8-40.1l18.1-10.6l-31.3-55l170.5-100.4l-16.2-28.4l42.2-24.8l70.4,123.9 M1754.3,4337.5 l-18.3,10.4l-52.6-92.6l34-20l-42.1-74.1l-34.3,19.5l-13.6-23.9l188.8-110.8l92.4,162.7 M1627.5,4156.8l-13.6-23.9l34-20l-42.3-74.5 l-34,20l-52.6-92.6l188.8-110.8l108.5,191.1 M1537.1,3955l-31.4-55.3l-18.1,10.6l-22.8-40.1l231-135.6l70.4,123.9l-42.2,24.8 M1647.2,4645l117.6-62 M1753.8,4564.2l-116.6,63.5 M1674.9,4387.6l-33.8,19.8l-16.6-29.3l-98.1,58 M1613.9,4279.8l-8.3-14.7 l-34,19.9l-52.6-92.6v-42.6l-13.3-23.3l-18.1,10.6l-22.8-40.1l-100.5,59.4 M1736,4573.9l-52.6-91.9 M2205.9,3608.2l33.1,58.4 l-34,19.9l14.7,25.8l58.2-27.2l119.5,205l-23.2,14.3l11.5,20.3l24.1-13.3l126.9,221.3l-79,49.9v-131l-231,135.6l-70.4-123.9 M1901.2,3614.1l72.1,122.9 M2155,3518.6l-18.1,10.6l17.4,30.7 M2014.1,3713.8l-16.5-29.1l170.7-100.2 M2219.7,3712.3l27.7,48.7 l55.6-32.4 M2106.1,3875.8l188.8-110.8l13.6,23.9l-34,19.9l42.3,74.5l34.3-19.5l22.1,39 M2308.5,3868.8l0-79.8 M2198.5,4038.5 l16.2,28.4l170.7-100.2l31.4,55.3l18.1-10.7l22.8,40.1 M2385.4,3966.8l18.1-10.6v42.6 M2505.1,4077.7l-47.4,27.8 M2226.7,4413.9 l0-226.7 M1766.1,3858.5l36.6,64.4l108.8-63.8 M1646.2,4758.7l-302.7-537l0-101.2l121.3-71.2l0-179.1"/>
	</g>
	<use x="0" y="0" href="#bloqB" class="pBb p200"/>
	<use x="0" y="-229" href="#bloqB" class="pBb p300"/>
	<use x="0" y="-458" href="#bloqB" class="pBb p400"/>
	<use x="0" y="-687" href="#bloqB" class="pBb p500"/>
	<use x="0" y="-916" href="#bloqB" class="pBb p600"/>
	<use x="0" y="-1145" href="#bloqB" class="pBb p700"/>
	<use x="0" y="-1374" href="#bloqB" class="pBb p800"/>
</g>
<g class="bloqueCs">
	<use x="0" y="229" href="#bloqC" class="pBc p1000"/>
	<use x="0" y="0" href="#bloqC" class="pBc p1100"/>
	<use x="0" y="-229" href="#bloqC" class="pBc p1200"/>
	<use x="0" y="-458" href="#bloqC" class="pBc p1300"/>
	<use x="0" y="-687" href="#bloqC" class="pBc p1400"/>
	<use x="0" y="-916" href="#bloqC" class="pBc p1500"/>
</g>
<g class="bloqueC">
	<use x="0" y="229" href="#bloqC" class="pBc p900"/>
	<use x="0" y="0" href="#bloqC" class="pBc p1000"/>
	<use x="0" y="-229" href="#bloqC" class="pBc p1100"/>
	<use x="0" y="-458" href="#bloqC" class="pBc p1200"/>
	<use x="0" y="-687" href="#bloqC" class="pBc p1300"/>
	<use x="0" y="-916" href="#bloqC" class="pBc p1400"/>
</g>

<g class="hBloqC">
	<g class="hsC p900 c1">
		<g class="h901 hBtns">
			<polygon class="habtFnd901" points="3265.5,3614.7 3275.5,3614.7 3275.5,3666.8 3265.5,3666.8 3265.5,3712.7 3026.2,3712.7 3026.2,3583.1 3070.9,3583.1 3070.9,3425.2 3265.5,3425.2 3265.5,3448.4 3275.5,3448.4 3275.5,3521.6 3265.5,3521.6"/>
			<text class="habtTxt901 habtTxt" transform="matrix(1 0 0 1 3127.5605 3587.6035)">901</text>
		</g>
		<g class="h902 hBtns">
			<polygon class="habtFnd902" points="3265.5,3235.7 3275.5,3235.7 3275.5,3183.6 3265.5,3183.6 3265.5,3137.7 3026.2,3137.7 3026.2,3267.3 3070.9,3267.3 3070.9,3425.2 3265.5,3425.2 3265.5,3402 3275.5,3402 3275.5,3328.9 3265.5,3328.9"/>
			<text class="habtTxt902 habtTxt" transform="matrix(1 0 0 1 3127.5605 3300.0879)">902</text>
		</g>
		<g class="h903 hBtns">
			<polygon class="habtFnd903" points="2590.9,3235.7 2581,3235.7 2581,3183.6 2590.9,3183.6 2590.9,3137.7 2830.3,3137.7 2830.3,3267.3 2785.6,3267.3 2785.6,3425.2 2590.9,3425.2 2590.9,3402 2581,3402 2581,3328.9 2590.9,3328.9"/>
			<text class="habtTxt903 habtTxt" transform="matrix(1 0 0 1 2647.4668 3300.0879)">903</text>
		</g>
		<g class="h904 hBtns">
			<polygon class="habtFnd904" points="2590.9,3614.7 2581,3614.7 2581,3666.8 2590.9,3666.8 2590.9,3712.7 2830.3,3712.7 2830.3,3583.1 2785.6,3583.1 2785.6,3425.2 2590.9,3425.2 2590.9,3448.4 2581,3448.4 2581,3521.6 2590.9,3521.6"/>
			<text class="habtTxt904 habtTxt" transform="matrix(1 0 0 1 2647.4668 3587.6035)">904</text>
		</g>

		<polygon class="habtAsce" points="3070.9,3583.1 3070.9,3267.3 3026.2,3267.3 3025.1,3381.9 2997.6,3381.9 2997.6,3324.6 2857.8,3324.6 2857.8,3381.9 2830.3,3381.9 2830.3,3267.3 2785.6,3267.3 2785.6,3583.1 2830,3583.1 2830,3524.8 3024.8,3524.8 3026.2,3583.1"/>
		<path class="habtCalle" d="M3435.7,3137.7h16.2V3711h-16.2V3137.7z M3406.3,3658.3h5.7v41.7h-5.7V3658.3z M3406.3,3601.7h5.7v41.7h-5.7 V3601.7z M3406.3,3545.1h5.7v41.7h-5.7V3545.1z M3406.3,3261.9h5.7v41.7h-5.7V3261.9z M3406.3,3205.3h5.7v41.7h-5.7V3205.3z M3406.3,3148.7h5.7v41.7h-5.7V3148.7z M3367.2,3137.7h16.2V3711h-16.2V3137.7z"/>
		<text class="habtCalle habtTxt" transform="matrix(-6.123235e-17 -1 1.0003 -6.125071e-17 3432.793 3486.5371)">JEJUÍ</text>
	</g>
	<g class="hsC p1000 c2">
		<g class="h1001 hBtns">
			<polygon class="habtFnd901" points="3265.5,3614.7 3275.5,3614.7 3275.5,3666.8 3265.5,3666.8 3265.5,3712.7 3026.2,3712.7 3026.2,3583.1 3070.9,3583.1 3070.9,3425.2 3265.5,3425.2 3265.5,3448.4 3275.5,3448.4 3275.5,3521.6 3265.5,3521.6"/>
			<text class="habtTxt901 habtTxt" transform="matrix(1 0 0 1 3127.5605 3587.6035)">1001</text>
		</g>
		<g class="h1002 hBtns">
			<polygon class="habtFnd902" points="3265.5,3235.7 3275.5,3235.7 3275.5,3183.6 3265.5,3183.6 3265.5,3137.7 3026.2,3137.7 3026.2,3267.3 3070.9,3267.3 3070.9,3425.2 3265.5,3425.2 3265.5,3402 3275.5,3402 3275.5,3328.9 3265.5,3328.9"/>
			<text class="habtTxt902 habtTxt" transform="matrix(1 0 0 1 3127.5605 3300.0879)">1002</text>
		</g>
		<g class="h1003 hBtns">
			<polygon class="habtFnd903" points="2590.9,3235.7 2581,3235.7 2581,3183.6 2590.9,3183.6 2590.9,3137.7 2830.3,3137.7 2830.3,3267.3 2785.6,3267.3 2785.6,3425.2 2590.9,3425.2 2590.9,3402 2581,3402 2581,3328.9 2590.9,3328.9"/>
			<text class="habtTxt903 habtTxt" transform="matrix(1 0 0 1 2647.4668 3300.0879)">1003</text>
		</g>
		<g class="h1004 hBtns">
			<polygon class="habtFnd904" points="2590.9,3614.7 2581,3614.7 2581,3666.8 2590.9,3666.8 2590.9,3712.7 2830.3,3712.7 2830.3,3583.1 2785.6,3583.1 2785.6,3425.2 2590.9,3425.2 2590.9,3448.4 2581,3448.4 2581,3521.6 2590.9,3521.6"/>
			<text class="habtTxt904 habtTxt" transform="matrix(1 0 0 1 2647.4668 3587.6035)">1004</text>
		</g>

		<polygon class="habtAsce" points="3070.9,3583.1 3070.9,3267.3 3026.2,3267.3 3025.1,3381.9 2997.6,3381.9 2997.6,3324.6 2857.8,3324.6 2857.8,3381.9 2830.3,3381.9 2830.3,3267.3 2785.6,3267.3 2785.6,3583.1 2830,3583.1 2830,3524.8 3024.8,3524.8 3026.2,3583.1"/>
		<path class="habtCalle" d="M3435.7,3137.7h16.2V3711h-16.2V3137.7z M3406.3,3658.3h5.7v41.7h-5.7V3658.3z M3406.3,3601.7h5.7v41.7h-5.7 V3601.7z M3406.3,3545.1h5.7v41.7h-5.7V3545.1z M3406.3,3261.9h5.7v41.7h-5.7V3261.9z M3406.3,3205.3h5.7v41.7h-5.7V3205.3z M3406.3,3148.7h5.7v41.7h-5.7V3148.7z M3367.2,3137.7h16.2V3711h-16.2V3137.7z"/>
		<text class="habtCalle habtTxt" transform="matrix(-6.123235e-17 -1 1.0003 -6.125071e-17 3432.793 3486.5371)">JEJUÍ</text>
	</g>
	<g class="hsC p1100 c3">
		<g class="h1101 hBtns">
			<polygon class="habtFnd901" points="3265.5,3614.7 3275.5,3614.7 3275.5,3666.8 3265.5,3666.8 3265.5,3712.7 3026.2,3712.7 3026.2,3583.1 3070.9,3583.1 3070.9,3425.2 3265.5,3425.2 3265.5,3448.4 3275.5,3448.4 3275.5,3521.6 3265.5,3521.6"/>
			<text class="habtTxt901 habtTxt" transform="matrix(1 0 0 1 3127.5605 3587.6035)">1101</text>
		</g>
		<g class="h1102 hBtns">
			<polygon class="habtFnd902" points="3265.5,3235.7 3275.5,3235.7 3275.5,3183.6 3265.5,3183.6 3265.5,3137.7 3026.2,3137.7 3026.2,3267.3 3070.9,3267.3 3070.9,3425.2 3265.5,3425.2 3265.5,3402 3275.5,3402 3275.5,3328.9 3265.5,3328.9"/>
			<text class="habtTxt902 habtTxt" transform="matrix(1 0 0 1 3127.5605 3300.0879)">1102</text>
		</g>
		<g class="h1103 hBtns">
			<polygon class="habtFnd903" points="2590.9,3235.7 2581,3235.7 2581,3183.6 2590.9,3183.6 2590.9,3137.7 2830.3,3137.7 2830.3,3267.3 2785.6,3267.3 2785.6,3425.2 2590.9,3425.2 2590.9,3402 2581,3402 2581,3328.9 2590.9,3328.9"/>
			<text class="habtTxt903 habtTxt" transform="matrix(1 0 0 1 2647.4668 3300.0879)">1103</text>
		</g>
		<g class="h1104 hBtns">
			<polygon class="habtFnd904" points="2590.9,3614.7 2581,3614.7 2581,3666.8 2590.9,3666.8 2590.9,3712.7 2830.3,3712.7 2830.3,3583.1 2785.6,3583.1 2785.6,3425.2 2590.9,3425.2 2590.9,3448.4 2581,3448.4 2581,3521.6 2590.9,3521.6"/>
			<text class="habtTxt904 habtTxt" transform="matrix(1 0 0 1 2647.4668 3587.6035)">1104</text>
		</g>

		<polygon class="habtAsce" points="3070.9,3583.1 3070.9,3267.3 3026.2,3267.3 3025.1,3381.9 2997.6,3381.9 2997.6,3324.6 2857.8,3324.6 2857.8,3381.9 2830.3,3381.9 2830.3,3267.3 2785.6,3267.3 2785.6,3583.1 2830,3583.1 2830,3524.8 3024.8,3524.8 3026.2,3583.1"/>
		<path class="habtCalle" d="M3435.7,3137.7h16.2V3711h-16.2V3137.7z M3406.3,3658.3h5.7v41.7h-5.7V3658.3z M3406.3,3601.7h5.7v41.7h-5.7 V3601.7z M3406.3,3545.1h5.7v41.7h-5.7V3545.1z M3406.3,3261.9h5.7v41.7h-5.7V3261.9z M3406.3,3205.3h5.7v41.7h-5.7V3205.3z M3406.3,3148.7h5.7v41.7h-5.7V3148.7z M3367.2,3137.7h16.2V3711h-16.2V3137.7z"/>
		<text class="habtCalle habtTxt" transform="matrix(-6.123235e-17 -1 1.0003 -6.125071e-17 3432.793 3486.5371)">JEJUÍ</text>
	</g>
	<g class="hsC p1200 c4">
		<g class="h1201 hBtns">
			<polygon class="habtFnd901" points="3265.5,3614.7 3275.5,3614.7 3275.5,3666.8 3265.5,3666.8 3265.5,3712.7 3026.2,3712.7 3026.2,3583.1 3070.9,3583.1 3070.9,3425.2 3265.5,3425.2 3265.5,3448.4 3275.5,3448.4 3275.5,3521.6 3265.5,3521.6"/>
			<text class="habtTxt901 habtTxt" transform="matrix(1 0 0 1 3127.5605 3587.6035)">1201</text>
		</g>
		<g class="h1202 hBtns">
			<polygon class="habtFnd902" points="3265.5,3235.7 3275.5,3235.7 3275.5,3183.6 3265.5,3183.6 3265.5,3137.7 3026.2,3137.7 3026.2,3267.3 3070.9,3267.3 3070.9,3425.2 3265.5,3425.2 3265.5,3402 3275.5,3402 3275.5,3328.9 3265.5,3328.9"/>
			<text class="habtTxt902 habtTxt" transform="matrix(1 0 0 1 3127.5605 3300.0879)">1202</text>
		</g>
		<g class="h1203 hBtns">
			<polygon class="habtFnd903" points="2590.9,3235.7 2581,3235.7 2581,3183.6 2590.9,3183.6 2590.9,3137.7 2830.3,3137.7 2830.3,3267.3 2785.6,3267.3 2785.6,3425.2 2590.9,3425.2 2590.9,3402 2581,3402 2581,3328.9 2590.9,3328.9"/>
			<text class="habtTxt903 habtTxt" transform="matrix(1 0 0 1 2647.4668 3300.0879)">1203</text>
		</g>
		<g class="h1204 hBtns">
			<polygon class="habtFnd904" points="2590.9,3614.7 2581,3614.7 2581,3666.8 2590.9,3666.8 2590.9,3712.7 2830.3,3712.7 2830.3,3583.1 2785.6,3583.1 2785.6,3425.2 2590.9,3425.2 2590.9,3448.4 2581,3448.4 2581,3521.6 2590.9,3521.6"/>
			<text class="habtTxt904 habtTxt" transform="matrix(1 0 0 1 2647.4668 3587.6035)">1204</text>
		</g>

		<polygon class="habtAsce" points="3070.9,3583.1 3070.9,3267.3 3026.2,3267.3 3025.1,3381.9 2997.6,3381.9 2997.6,3324.6 2857.8,3324.6 2857.8,3381.9 2830.3,3381.9 2830.3,3267.3 2785.6,3267.3 2785.6,3583.1 2830,3583.1 2830,3524.8 3024.8,3524.8 3026.2,3583.1"/>
		<path class="habtCalle" d="M3435.7,3137.7h16.2V3711h-16.2V3137.7z M3406.3,3658.3h5.7v41.7h-5.7V3658.3z M3406.3,3601.7h5.7v41.7h-5.7 V3601.7z M3406.3,3545.1h5.7v41.7h-5.7V3545.1z M3406.3,3261.9h5.7v41.7h-5.7V3261.9z M3406.3,3205.3h5.7v41.7h-5.7V3205.3z M3406.3,3148.7h5.7v41.7h-5.7V3148.7z M3367.2,3137.7h16.2V3711h-16.2V3137.7z"/>
		<text class="habtCalle habtTxt" transform="matrix(-6.123235e-17 -1 1.0003 -6.125071e-17 3432.793 3486.5371)">JEJUÍ</text>
	</g>
	<g class="hsC p1300 c5">
		<g class="h1301 hBtns">
			<polygon class="habtFnd901" points="3265.5,3614.7 3275.5,3614.7 3275.5,3666.8 3265.5,3666.8 3265.5,3712.7 3026.2,3712.7 3026.2,3583.1 3070.9,3583.1 3070.9,3425.2 3265.5,3425.2 3265.5,3448.4 3275.5,3448.4 3275.5,3521.6 3265.5,3521.6"/>
			<text class="habtTxt901 habtTxt" transform="matrix(1 0 0 1 3127.5605 3587.6035)">1301</text>
		</g>
		<g class="h1302 hBtns">
			<polygon class="habtFnd902" points="3265.5,3235.7 3275.5,3235.7 3275.5,3183.6 3265.5,3183.6 3265.5,3137.7 3026.2,3137.7 3026.2,3267.3 3070.9,3267.3 3070.9,3425.2 3265.5,3425.2 3265.5,3402 3275.5,3402 3275.5,3328.9 3265.5,3328.9"/>
			<text class="habtTxt902 habtTxt" transform="matrix(1 0 0 1 3127.5605 3300.0879)">1302</text>
		</g>
		<g class="h1303 hBtns">
			<polygon class="habtFnd903" points="2590.9,3235.7 2581,3235.7 2581,3183.6 2590.9,3183.6 2590.9,3137.7 2830.3,3137.7 2830.3,3267.3 2785.6,3267.3 2785.6,3425.2 2590.9,3425.2 2590.9,3402 2581,3402 2581,3328.9 2590.9,3328.9"/>
			<text class="habtTxt903 habtTxt" transform="matrix(1 0 0 1 2647.4668 3300.0879)">1303</text>
		</g>
		<g class="h1304 hBtns">
			<polygon class="habtFnd904" points="2590.9,3614.7 2581,3614.7 2581,3666.8 2590.9,3666.8 2590.9,3712.7 2830.3,3712.7 2830.3,3583.1 2785.6,3583.1 2785.6,3425.2 2590.9,3425.2 2590.9,3448.4 2581,3448.4 2581,3521.6 2590.9,3521.6"/>
			<text class="habtTxt904 habtTxt" transform="matrix(1 0 0 1 2647.4668 3587.6035)">1304</text>
		</g>

		<polygon class="habtAsce" points="3070.9,3583.1 3070.9,3267.3 3026.2,3267.3 3025.1,3381.9 2997.6,3381.9 2997.6,3324.6 2857.8,3324.6 2857.8,3381.9 2830.3,3381.9 2830.3,3267.3 2785.6,3267.3 2785.6,3583.1 2830,3583.1 2830,3524.8 3024.8,3524.8 3026.2,3583.1"/>
		<path class="habtCalle" d="M3435.7,3137.7h16.2V3711h-16.2V3137.7z M3406.3,3658.3h5.7v41.7h-5.7V3658.3z M3406.3,3601.7h5.7v41.7h-5.7 V3601.7z M3406.3,3545.1h5.7v41.7h-5.7V3545.1z M3406.3,3261.9h5.7v41.7h-5.7V3261.9z M3406.3,3205.3h5.7v41.7h-5.7V3205.3z M3406.3,3148.7h5.7v41.7h-5.7V3148.7z M3367.2,3137.7h16.2V3711h-16.2V3137.7z"/>
		<text class="habtCalle habtTxt" transform="matrix(-6.123235e-17 -1 1.0003 -6.125071e-17 3432.793 3486.5371)">JEJUÍ</text>
	</g>
	<g class="hsC p1400 c6">
		<g class="h1401 hBtns">
			<polygon class="habtFnd901" points="3265.5,3614.7 3275.5,3614.7 3275.5,3666.8 3265.5,3666.8 3265.5,3712.7 3026.2,3712.7 3026.2,3583.1 3070.9,3583.1 3070.9,3425.2 3265.5,3425.2 3265.5,3448.4 3275.5,3448.4 3275.5,3521.6 3265.5,3521.6"/>
			<text class="habtTxt901 habtTxt" transform="matrix(1 0 0 1 3127.5605 3587.6035)">1401</text>
		</g>
		<g class="h1402 hBtns">
			<polygon class="habtFnd902" points="3265.5,3235.7 3275.5,3235.7 3275.5,3183.6 3265.5,3183.6 3265.5,3137.7 3026.2,3137.7 3026.2,3267.3 3070.9,3267.3 3070.9,3425.2 3265.5,3425.2 3265.5,3402 3275.5,3402 3275.5,3328.9 3265.5,3328.9"/>
			<text class="habtTxt902 habtTxt" transform="matrix(1 0 0 1 3127.5605 3300.0879)">1402</text>
		</g>
		<g class="h1403 hBtns">
			<polygon class="habtFnd903" points="2590.9,3235.7 2581,3235.7 2581,3183.6 2590.9,3183.6 2590.9,3137.7 2830.3,3137.7 2830.3,3267.3 2785.6,3267.3 2785.6,3425.2 2590.9,3425.2 2590.9,3402 2581,3402 2581,3328.9 2590.9,3328.9"/>
			<text class="habtTxt903 habtTxt" transform="matrix(1 0 0 1 2647.4668 3300.0879)">1403</text>
		</g>
		<g class="h1404 hBtns">
			<polygon class="habtFnd904" points="2590.9,3614.7 2581,3614.7 2581,3666.8 2590.9,3666.8 2590.9,3712.7 2830.3,3712.7 2830.3,3583.1 2785.6,3583.1 2785.6,3425.2 2590.9,3425.2 2590.9,3448.4 2581,3448.4 2581,3521.6 2590.9,3521.6"/>
			<text class="habtTxt904 habtTxt" transform="matrix(1 0 0 1 2647.4668 3587.6035)">1404</text>
		</g>

		<polygon class="habtAsce" points="3070.9,3583.1 3070.9,3267.3 3026.2,3267.3 3025.1,3381.9 2997.6,3381.9 2997.6,3324.6 2857.8,3324.6 2857.8,3381.9 2830.3,3381.9 2830.3,3267.3 2785.6,3267.3 2785.6,3583.1 2830,3583.1 2830,3524.8 3024.8,3524.8 3026.2,3583.1"/>
		<path class="habtCalle" d="M3435.7,3137.7h16.2V3711h-16.2V3137.7z M3406.3,3658.3h5.7v41.7h-5.7V3658.3z M3406.3,3601.7h5.7v41.7h-5.7 V3601.7z M3406.3,3545.1h5.7v41.7h-5.7V3545.1z M3406.3,3261.9h5.7v41.7h-5.7V3261.9z M3406.3,3205.3h5.7v41.7h-5.7V3205.3z M3406.3,3148.7h5.7v41.7h-5.7V3148.7z M3367.2,3137.7h16.2V3711h-16.2V3137.7z"/>
		<text class="habtCalle habtTxt" transform="matrix(-6.123235e-17 -1 1.0003 -6.125071e-17 3432.793 3486.5371)">JEJUÍ</text>
	</g>
</g>













<g class="azotea" style="transform:translateY(229px)">
	<polygon class="azoPiso" points="1675.9,878.6 1642.1,898.5 1614.9,850.6 1648.9,830.6 1606.5,756.8 1572.5,776.1 1519.9,683.4 1538.1,672.4 1532.2,662.4 1653.7,591.3 1827.9,896.9 1883,993.8 1883,1109.3 1791.2,1161.1 1768.4,1120.9 1786.6,1110.3 1755.3,1055.3 1737,1065.6 1684.4,973 1718.4,953.1"/>
	<polygon class="azoPredesLine" points="1675.9,878.6 1642.1,898.5 1614.9,850.6 1648.9,830.6 1606.5,756.8 1572.5,776.1 1519.9,683.4 1538.1,672.4 1532.2,662.4 1653.7,591.3 1827.9,896.9 1883,993.8 1883,1109.3 1791.2,1161.1 1768.4,1120.9 1786.6,1110.3 1755.3,1055.3 1737,1065.6 1684.4,973 1718.4,953.1"/>
	<polygon class="azoParedes" points="1465.7,588 1557.2,535.8 1557.2,420.9 1653.6,591.7 1512.9,673.7"/>
	<polygon class="azoPredesLine" points="1465.7,588 1557.2,535.8 1557.2,420.9 1653.6,591.7 1512.9,673.7"/>
	<polygon class="azoPiso" points="2062.1,184.5 1927.5,263.1 1972.4,342.1 2014.7,317.6 2199.5,642.9 2159.1,670.9 2227.7,791.6 2274.4,764.1 2274.4,893.7 2360.5,843.2 2238.4,619.9 2292.1,589.3"/>
	<polygon class="azoAscen" points="1972.4,342.1 2009.1,406.8 1803.7,527.3 1767.1,462.9 1724.9,487.7 1909.7,813 1951.9,788.2 2012,894.1 2120.8,830.3 2157.3,894.4 2159.1,670.9 2199.5,742 2199.5,642.9 2014.7,317.6"/>
	<path class="azoAscLine" d="M2157.3,667.7l-36.5-64.2v226.8l36.5,64.2 M1951.9,788.2l-36.5-64.2l205.4-120.5 M2012,894.1l108.8-63.9"/>
	<path class="azoTecho" d="M1615.1,542.5l-75.3,42.8l-4.9-8.5l75.3-42.8L1615.1,542.5z M1624.8,559.6l-75.3,42.8l-4.9-8.5l75.3-42.8 L1624.8,559.6z M1634.5,576.6l-75.3,42.8l-4.9-8.5l75.3-42.8L1634.5,576.6z M1644.2,593.7l-75.3,42.8l-4.9-8.5l75.3-42.8 L1644.2,593.7z M1653.9,610.8l-75.3,42.8l-4.9-8.5l75.3-42.8L1653.9,610.8z M1663.6,627.8l-75.3,42.8l-4.9-8.5l75.3-42.8 L1663.6,627.8z M1673.3,644.9l-75.3,42.8l-4.9-8.5l75.3-42.8L1673.3,644.9z M1683,661.9l-75.3,42.8l-4.9-8.5l75.3-42.8L1683,661.9z M1692.7,679l-75.3,42.8l-4.9-8.5l75.3-42.8L1692.7,679z M1702.4,696l-75.3,42.8l-4.8-8.5l75.3-42.8L1702.4,696z M1712.1,713.1 l-75.3,42.8l-4.9-8.5l75.3-42.8L1712.1,713.1z M1721.8,730.2l-75.3,42.8l-4.9-8.5l75.3-42.8L1721.8,730.2z M1731.5,747.2l-75.3,42.8 l-4.9-8.5l75.3-42.8L1731.5,747.2z M1741.2,764.3l-75.3,42.8l-4.9-8.5l75.3-42.8L1741.2,764.3z M1750.9,781.3l-75.3,42.8l-4.9-8.5 l75.3-42.8L1750.9,781.3z M1760.6,798.4l-75.3,42.8l-4.9-8.5l75.3-42.8L1760.6,798.4z M1770.3,815.4l-75.3,42.8l-4.9-8.5l75.3-42.8 L1770.3,815.4z M1780,832.5l-75.3,42.8l-4.9-8.5l75.3-42.8L1780,832.5z M1789.7,849.6l-75.3,42.8l-4.9-8.5l75.3-42.8L1789.7,849.6z M1799.4,866.6l-75.3,42.8l-4.9-8.5l75.3-42.8L1799.4,866.6z M1809.1,883.7l-75.3,42.8l-4.9-8.5l75.3-42.8L1809.1,883.7z M1909.7,813l-92.4-162.7l-92.4-162.7l42.2-24.8L1696.8,339l-139.6,81.9l53.1,93.4l-93.6,50.3L1735,948.4l92.9-51.5l55.1,96.9 l139.2-81.7l-10.2-18l-60.1-105.9L1909.7,813z"/>
	<path class="azoPredesLine" d="M1615.1,542.5l-75.3,42.8l-4.9-8.5l75.3-42.8L1615.1,542.5z M1624.8,559.6l-75.3,42.8l-4.9-8.5l75.3-42.8 L1624.8,559.6z M1634.5,576.6l-75.3,42.8l-4.9-8.5l75.3-42.8L1634.5,576.6z M1644.2,593.7l-75.3,42.8l-4.9-8.5l75.3-42.8 L1644.2,593.7z M1653.9,610.8l-75.3,42.8l-4.9-8.5l75.3-42.8L1653.9,610.8z M1663.6,627.8l-75.3,42.8l-4.9-8.5l75.3-42.8 L1663.6,627.8z M1673.3,644.9l-75.3,42.8l-4.9-8.5l75.3-42.8L1673.3,644.9z M1683,661.9l-75.3,42.8l-4.9-8.5l75.3-42.8L1683,661.9z M1692.7,679l-75.3,42.8l-4.9-8.5l75.3-42.8L1692.7,679z M1702.4,696l-75.3,42.8l-4.8-8.5l75.3-42.8L1702.4,696z M1712.1,713.1 l-75.3,42.8l-4.9-8.5l75.3-42.8L1712.1,713.1z M1721.8,730.2l-75.3,42.8l-4.9-8.5l75.3-42.8L1721.8,730.2z M1731.5,747.2l-75.3,42.8 l-4.9-8.5l75.3-42.8L1731.5,747.2z M1741.2,764.3l-75.3,42.8l-4.9-8.5l75.3-42.8L1741.2,764.3z M1750.9,781.3l-75.3,42.8l-4.9-8.5 l75.3-42.8L1750.9,781.3z M1760.6,798.4l-75.3,42.8l-4.9-8.5l75.3-42.8L1760.6,798.4z M1770.3,815.4l-75.3,42.8l-4.9-8.5l75.3-42.8 L1770.3,815.4z M1780,832.5l-75.3,42.8l-4.9-8.5l75.3-42.8L1780,832.5z M1789.7,849.6l-75.3,42.8l-4.9-8.5l75.3-42.8L1789.7,849.6z M1799.4,866.6l-75.3,42.8l-4.9-8.5l75.3-42.8L1799.4,866.6z M1809.1,883.7l-75.3,42.8l-4.9-8.5l75.3-42.8L1809.1,883.7z M1909.7,813l-92.4-162.7l-92.4-162.7l42.2-24.8L1696.8,339l-139.6,81.9l53.1,93.4l-93.6,50.3L1735,948.4l92.9-51.5l55.1,96.9 l139.2-81.7l-10.2-18l-60.1-105.9L1909.7,813z"/>
	<polygon class="azoPiscina" points="2292.1,589.3 2417.3,809.8 2339.9,855.2 2217.9,631.9"/>
	<polygon class="azoPredesLine" points="2292.1,589.3 2417.3,809.8 2339.9,855.2 2217.9,631.9"/>
	<polygon class="azoParedes" points="2231.7,407.1 2231.7,444 2439.7,796.7 2417.3,809.8 2199.4,426.1"/>
	<polygon class="azoPredesLine" points="2231.7,407.1 2231.7,444 2439.7,796.7 2417.3,809.8 2199.4,426.1"/>
	<polygon class="azoPredesLine" points="1902,218.2 2062.1,124.6 2062.1,184.5 1927.5,263.1"/>
	<path class="azoParedes" d="M1902.2,445.2V218.5l106.9,188.3l-96.6,56.7L1902.2,445.2z M2458.7,785.5v97.2l-231,135.6l-70.4-123.9V667.7 l70.4,123.9l46.7-27.4v129.6L2458.7,785.5z M2022.3,912.1v226.7l-231.1,135.6l-22.8-40.2v-42.6l-13.6-23.1L1737,1179l-52.6-92.6 l0-79.8l-8.6-14.6l-33.8,19.8l-27.2-47.9v-79.8l-8.3-14.7l-34,19.9l-52.6-92.6v-42.6l-13.3-23.3l-18.1,10.6l-22.8-40.1V588 l22.8,40.1l18.1-10.6l31.4,55.3l-18.1,10.6l52.6,92.6l34.3-19.5l42,74l-34,19.9l27.2,47.9l34.3-19.5l42.1,74.1l-34,19.9l52.6,92.6 l18.3-10.4l31.3,55l-18.1,10.6l22.8,40.2l91.8-51.8l0-115.4L2022.3,912.1z"/>
	<path class="azoPredesLine" d="M1902.2,445.2V218.5l106.9,188.3l-96.6,56.7L1902.2,445.2z M2458.7,785.5v97.2l-231,135.6l-70.4-123.9V667.7 l70.4,123.9l46.7-27.4v129.6L2458.7,785.5z M2022.3,912.1v226.7l-231.1,135.6l-22.8-40.2v-42.6l-13.6-23.1L1737,1179l-52.6-92.6 l0-79.8l-8.6-14.6l-33.8,19.8l-27.2-47.9v-79.8l-8.3-14.7l-34,19.9l-52.6-92.6v-42.6l-13.3-23.3l-18.1,10.6l-22.8-40.1V588 l22.8,40.1l18.1-10.6l31.4,55.3l-18.1,10.6l52.6,92.6l34.3-19.5l42,74l-34,19.9l27.2,47.9l34.3-19.5l42.1,74.1l-34,19.9l52.6,92.6 l18.3-10.4l31.3,55l-18.1,10.6l22.8,40.2l91.8-51.8l0-115.4L2022.3,912.1z"/>
	<polygon class="azoTecho" points="2231.7,407.1 2062.1,124.6 1902,218.2 1972.4,342.1 2014.7,317.6 2107.1,480.2"/>
	<polygon class="azoPredesLine" points="2231.7,407.1 2062.1,124.6 1902,218.2 1972.4,342.1 2014.7,317.6 2107.1,480.2"/>
	<path class="azoPredesLine" d="M1791.2,1274.5l0-113.4 M1768.4,1191.7v-70.8 M1754.8,1168.6l0-113.4 M1737,1179l0-113.4 M1684.4,1086.4 l0-113.4 M1675.9,992l0-113.4 M1642.1,1011.9l0-113.4 M1614.9,884.2l0-33.6 M1606.5,869.5l0-113.4 M1572.5,889.4l0-113.4 M1519.9,754.2l0-70.8 M1506.7,730.9l0-113.4 M1488.5,741.5l0-113.4 M2227.7,1018.3l0-226.7"/>
</g>
</svg>
